0
SECTION
2
HEADER
9
$INSUNITS
70
4
0
ENDSEC
0
SECTION
2
TABLES
0
TABLE
2
LTYPE
0
LTYPE
72
65
70
64
2
CONTINUOUS
3
______
73
0
40
0
0
ENDTAB
0
TABLE
2
LAYER
0
ENDTAB
0
ENDSEC
0
SECTION
2
ENTITIES
0
LINE
8
front_outsideCutPath
10
0
20
94
11
0
21
60.125
0
LINE
8
front_outsideCutPath
10
0
20
60.125
11
3
21
60.125
0
LINE
8
front_outsideCutPath
10
3
20
60.125
11
3
21
36.875
0
LINE
8
front_outsideCutPath
10
3
20
36.875
11
0
21
36.875
0
LINE
8
front_outsideCutPath
10
0
20
36.875
11
0
21
13.625
0
LINE
8
front_outsideCutPath
10
0
20
13.625
11
0
21
3
0
LINE
8
front_outsideCutPath
10
0
20
3
11
33.125
21
3
0
LINE
8
front_outsideCutPath
10
33.125
20
3
11
33.125
21
6
0
LINE
8
front_outsideCutPath
10
33.125
20
6
11
56.375
21
6
0
LINE
8
front_outsideCutPath
10
56.375
20
6
11
56.375
21
3
0
LINE
8
front_outsideCutPath
10
56.375
20
3
11
79.625
21
3
0
LINE
8
front_outsideCutPath
10
79.625
20
3
11
79.625
21
6
0
LINE
8
front_outsideCutPath
10
79.625
20
6
11
102.875
21
6
0
LINE
8
front_outsideCutPath
10
102.875
20
6
11
102.875
21
3
0
LINE
8
front_outsideCutPath
10
102.875
20
3
11
126.125
21
3
0
LINE
8
front_outsideCutPath
10
126.125
20
3
11
136
21
3
0
LINE
8
front_outsideCutPath
10
136
20
3
11
136
21
36.875
0
LINE
8
front_outsideCutPath
10
136
20
36.875
11
133
21
36.875
0
LINE
8
front_outsideCutPath
10
133
20
36.875
11
133
21
60.125
0
LINE
8
front_outsideCutPath
10
133
20
60.125
11
136
21
60.125
0
LINE
8
front_outsideCutPath
10
136
20
60.125
11
136
21
83.375
0
LINE
8
front_outsideCutPath
10
136
20
83.375
11
136
21
94
0
LINE
8
front_outsideCutPath
10
136
20
94
11
102.875
21
94
0
LINE
8
front_outsideCutPath
10
102.875
20
94
11
102.875
21
91
0
LINE
8
front_outsideCutPath
10
102.875
20
91
11
79.625
21
91
0
LINE
8
front_outsideCutPath
10
79.625
20
91
11
79.625
21
94
0
LINE
8
front_outsideCutPath
10
79.625
20
94
11
56.375
21
94
0
LINE
8
front_outsideCutPath
10
56.375
20
94
11
56.375
21
91
0
LINE
8
front_outsideCutPath
10
56.375
20
91
11
33.125
21
91
0
LINE
8
front_outsideCutPath
10
33.125
20
91
11
33.125
21
94
0
LINE
8
front_outsideCutPath
10
33.125
20
94
11
9.875
21
94
0
LINE
8
front_outsideCutPath
10
9.875
20
94
11
0
21
94
0
LINE
8
front_labelLayer
10
52.9236816
20
51.3661595
11
52.9236816
21
50.2197728
0
LINE
8
front_labelLayer
10
52.9236816
20
50.2197728
11
50.4442871
21
50.2197728
0
LINE
8
front_labelLayer
10
50.4442871
20
50.2197728
11
50.4442871
21
41.6263157
0
LINE
8
front_labelLayer
10
50.4442871
20
41.6263157
11
48.9690918
21
41.6263157
0
LINE
8
front_labelLayer
10
48.9690918
20
41.6263157
11
48.9690918
21
50.2197728
0
LINE
8
front_labelLayer
10
48.9690918
20
50.2197728
11
47.2272949
21
50.2197728
0
LINE
8
front_labelLayer
10
47.2272949
20
50.2197728
11
47.2272949
21
50.8862767
0
LINE
8
front_labelLayer
10
47.2272949
20
50.8862767
11
48.9690918
21
51.4194798
0
LINE
8
front_labelLayer
10
48.9690918
20
51.4194798
11
48.9690918
21
51.9615697
0
LINE
8
front_labelLayer
10
53.9189941
20
55.2407689
11
53.5368652
21
54.0588353
0
LINE
8
front_labelLayer
10
50.4442871
20
51.9971165
11
50.4442871
21
51.3661595
0
LINE
8
front_labelLayer
10
50.4442871
20
51.3661595
11
52.9236816
21
51.3661595
0
ARC
8
front_labelLayer
10
54.9475356
20
52.0303019
40
5.9788389
50
167.5775903
51
180.6586821
0
ARC
8
front_labelLayer
10
52.1360939
20
52.685768
40
3.0924178
50
141.7433886
51
168.232206
0
ARC
8
front_labelLayer
10
51.6783319
20
52.9246861
40
2.5868035
50
98.2551422
51
139.6203424
0
ARC
8
front_labelLayer
10
52.0802538
20
51.0679592
40
4.4839193
50
89.6696891
51
99.9314272
0
ARC
8
front_labelLayer
10
52.0813763
20
50.8014212
40
4.7504472
50
81.5640676
51
89.7017604
0
ARC
8
front_labelLayer
10
51.7474064
20
48.4714424
40
7.1042206
50
75.9740125
51
81.6564871
0
ARC
8
front_labelLayer
10
51.1743204
20
46.0944065
40
9.5493026
50
73.2963592
51
76.0946315
0
ARC
8
front_labelLayer
10
51.3186288
20
47.2474467
40
7.1634898
50
71.9613411
51
76.5918456
0
ARC
8
front_labelLayer
10
51.8743721
20
49.6049647
40
4.7413658
50
76.5183629
51
83.0216691
0
ARC
8
front_labelLayer
10
52.0679662
20
51.1618072
40
3.172537
50
83.0760844
51
89.7927236
0
ARC
8
front_labelLayer
10
52.0615925
20
52.3449473
40
1.9894563
50
89.4858937
51
103.4197543
0
ARC
8
front_labelLayer
10
51.8822293
20
53.0340405
40
1.2776337
50
102.7677438
51
144.3380276
0
ARC
8
front_labelLayer
10
52.2435732
20
52.8015489
40
1.706897
50
145.0688615
51
162.1801813
0
ARC
8
front_labelLayer
10
53.4824939
20
52.3847121
40
3.0139929
50
161.8437373
51
171.7846945
0
ARC
8
front_labelLayer
10
55.5031589
20
52.0812113
40
5.0573036
50
171.6527444
51
178.4383876
0
ARC
8
front_labelLayer
10
57.4093066
20
51.9999331
40
6.96502
50
178.1973434
51
180.0231697
0
LINE
8
front_labelLayer
10
60.3085449
20
51.4372532
11
60.1041504
21
50.0686986
0
LINE
8
front_labelLayer
10
56.1762207
20
46.8517064
11
56.1762207
21
41.6263157
0
LINE
8
front_labelLayer
10
56.1762207
20
41.6263157
11
54.7010254
21
41.6263157
0
LINE
8
front_labelLayer
10
54.7010254
20
41.6263157
11
54.7010254
21
51.3661595
0
LINE
8
front_labelLayer
10
54.7010254
20
51.3661595
11
55.9185059
21
51.3661595
0
LINE
8
front_labelLayer
10
55.9185059
20
51.3661595
11
56.0873535
21
49.5621556
0
LINE
8
front_labelLayer
10
56.0873535
20
49.5621556
11
56.1584473
21
49.5621556
0
ARC
8
front_labelLayer
10
59.1595265
20
44.771539
40
6.7723718
50
84.9922778
51
90.1281027
0
ARC
8
front_labelLayer
10
59.3221622
20
46.5936897
40
4.9429809
50
78.4892255
51
85.0265807
0
ARC
8
front_labelLayer
10
58.6908846
20
43.7224851
40
6.5016725
50
77.4454177
51
81.6360131
0
ARC
8
front_labelLayer
10
58.9741618
20
45.6750516
40
4.5286694
50
81.5884628
51
87.1916365
0
ARC
8
front_labelLayer
10
59.0356854
20
46.7418863
40
3.4601138
50
87.3436404
51
89.9659103
0
ARC
8
front_labelLayer
10
59.0213956
20
47.6459753
40
2.5560764
50
89.6335356
51
137.088085
0
ARC
8
front_labelLayer
10
59.6486187
20
46.9406277
40
3.4968542
50
135.6208482
51
138.8377711
0
ARC
8
front_labelLayer
10
59.5567827
20
47.0302731
40
3.3687189
50
138.9575709
51
174.5422288
0
ARC
8
front_labelLayer
10
60.6539249
20
46.8586035
40
4.4777095
50
173.6907678
51
180.0882544
0
ARC
8
front_labelLayer
10
60.4987735
20
47.1168373
40
4.9817681
50
139.4139146
51
150.603305
0
ARC
8
front_labelLayer
10
59.6055412
20
47.8822477
40
3.8054531
50
124.2321249
51
139.4161321
0
ARC
8
front_labelLayer
10
59.1279433
20
48.6031819
40
2.9407579
50
89.6796642
51
124.4405587
0
ARC
8
front_labelLayer
10
62.9173375
20
46.4537549
40
7.6199938
50
349.1761934
51
0.3862567
0
ARC
8
front_labelLayer
10
65.4828148
20
45.942322
40
5.0041588
50
330.250704
51
349.411651
0
ARC
8
front_labelLayer
10
66.2723368
20
45.5319594
40
4.1152205
50
318.1439696
51
329.7566221
0
ARC
8
front_labelLayer
10
66.4148329
20
45.4177621
40
3.9328995
50
278.8959165
51
317.9979184
0
ARC
8
front_labelLayer
10
66.047672
20
47.1768611
40
5.728334
50
269.7502754
51
279.8033238
0
ARC
8
front_labelLayer
10
65.9881252
20
46.1857251
40
4.7372699
50
253.5436985
51
270.4182365
0
ARC
8
front_labelLayer
10
65.830429
20
45.5757164
40
4.1076335
50
238.8115391
51
253.2428349
0
ARC
8
front_labelLayer
10
65.7795372
20
45.4733743
40
3.9937398
50
207.7947006
51
238.6757927
0
ARC
8
front_labelLayer
10
66.5097751
20
45.9206143
40
4.8485895
50
205.6559986
51
208.4461372
0
ARC
8
front_labelLayer
10
67.0723145
20
46.1550104
40
5.4572492
50
188.9102383
51
205.3171502
0
ARC
8
front_labelLayer
10
68.9679647
20
46.4760746
40
7.3797894
50
179.7744607
51
189.0932973
0
ARC
8
front_labelLayer
10
69.2476208
20
46.5570038
40
7.6595641
50
169.2442995
51
180.3880764
0
ARC
8
front_labelLayer
10
66.6464888
20
47.0711532
40
5.0082164
50
150.7111436
51
169.4695476
0
ARC
8
front_labelLayer
10
65.8161259
20
47.4975765
40
4.0755361
50
138.175937
51
150.2287514
0
ARC
8
front_labelLayer
10
65.6780063
20
47.6035676
40
3.9019523
50
99.1759342
51
137.9832782
0
ARC
8
front_labelLayer
10
66.058177
20
45.8144423
40
5.729514
50
89.7326447
51
100.075983
0
ARC
8
front_labelLayer
10
66.1341592
20
46.5871112
40
4.9570274
50
73.52227
51
90.5692319
0
ARC
8
front_labelLayer
10
66.4248595
20
47.6433008
40
3.8618165
50
41.1445602
51
73.2133846
0
ARC
8
front_labelLayer
10
65.8699364
20
47.1663513
40
4.5935206
50
13.5014307
51
41.070344
0
ARC
8
front_labelLayer
10
63.7259852
20
46.6053086
40
6.8093568
50
1.1277273
51
13.8799932
0
ARC
8
front_labelLayer
10
61.8795472
20
46.5063483
40
8.6576112
50
359.9919
51
1.5420216
0
ARC
8
front_labelLayer
10
70.5870265
20
46.4667885
40
7.4703769
50
179.7059732
51
187.9160703
0
ARC
8
front_labelLayer
10
67.8471118
20
46.073203
40
4.7023822
50
187.763917
51
200.0976854
0
ARC
8
front_labelLayer
10
66.337717
20
45.5201593
40
3.0948594
50
200.084598
51
216.9131665
0
ARC
8
front_labelLayer
10
65.786538
20
45.1265912
40
2.417843
50
217.3009549
51
261.709908
0
ARC
8
front_labelLayer
10
66.042414
20
46.3476071
40
3.663806
50
260.5033223
51
270.2476797
0
ARC
8
front_labelLayer
10
66.0912533
20
46.1101786
40
3.4265022
50
269.4481647
51
284.7255601
0
ARC
8
front_labelLayer
10
66.3625091
20
45.1041758
40
2.3846009
50
284.5662332
51
322.633392
0
ARC
8
front_labelLayer
10
65.7282966
20
45.5623662
40
3.1668028
50
323.0089311
51
342.6390356
0
ARC
8
front_labelLayer
10
63.9143188
20
46.155225
40
5.0751057
50
342.3615766
51
353.7537559
0
ARC
8
front_labelLayer
10
61.2381396
20
46.4778059
40
7.7705511
50
353.5362901
51
0.2014315
0
ARC
8
front_labelLayer
10
61.6481401
20
46.5426925
40
7.3605983
50
359.707564
51
7.8972719
0
ARC
8
front_labelLayer
10
64.3437902
20
46.929139
40
4.6374337
50
7.7439921
51
20.0690048
0
ARC
8
front_labelLayer
10
65.8459247
20
47.4803644
40
3.0373555
50
20.0257104
51
37.4350718
0
ARC
8
front_labelLayer
10
66.3443153
20
47.8340159
40
2.426742
50
37.9577679
51
80.400612
0
ARC
8
front_labelLayer
10
66.0610957
20
46.5703144
40
3.7206091
50
79.3453535
51
90.3174971
0
ARC
8
front_labelLayer
10
66.0086534
20
46.7802115
40
3.5107993
50
89.4806106
51
103.8804949
0
ARC
8
front_labelLayer
10
65.7136551
20
47.9035659
40
2.3495403
50
103.4685206
51
142.3118833
0
ARC
8
front_labelLayer
10
66.2871506
20
47.5002424
40
3.0501151
50
142.9025583
51
162.3749642
0
ARC
8
front_labelLayer
10
68.0942489
20
46.8980323
40
4.9547987
50
162.065324
51
173.167493
0
ARC
8
front_labelLayer
10
70.9120067
20
46.5386444
40
7.7953307
50
173.0086261
51
180.2463736
0
LINE
8
front_labelLayer
10
81.2634277
20
41.6263157
11
79.7882324
21
41.6263157
0
LINE
8
front_labelLayer
10
79.7882324
20
41.6263157
11
79.7882324
21
47.9269993
0
LINE
8
front_labelLayer
10
74.5983887
20
46.736179
11
74.5983887
21
41.6263157
0
LINE
8
front_labelLayer
10
74.5983887
20
41.6263157
11
73.1231934
21
41.6263157
0
LINE
8
front_labelLayer
10
73.1231934
20
41.6263157
11
73.1231934
21
51.3661595
0
LINE
8
front_labelLayer
10
73.1231934
20
51.3661595
11
74.3229004
21
51.3661595
0
LINE
8
front_labelLayer
10
74.3229004
20
51.3661595
11
74.5628418
21
50.0331517
0
LINE
8
front_labelLayer
10
74.5628418
20
50.0331517
11
74.6339355
21
50.0331517
0
LINE
8
front_labelLayer
10
81.2634277
20
47.9803197
11
81.2634277
21
41.6263157
0
ARC
8
front_labelLayer
10
75.6183147
20
47.9509151
40
4.1699863
50
359.6713949
51
8.6877502
0
ARC
8
front_labelLayer
10
77.1638221
20
48.1960249
40
2.605203
50
8.4931273
51
22.6580028
0
ARC
8
front_labelLayer
10
77.9490512
20
48.5223425
40
1.7548707
50
22.7024361
51
42.3419759
0
ARC
8
front_labelLayer
10
78.0373134
20
48.5620454
40
1.6631632
50
43.3790944
51
71.5386049
0
ARC
8
front_labelLayer
10
77.7072505
20
47.639764
40
2.6425848
50
71.0828027
51
84.3691002
0
ARC
8
front_labelLayer
10
77.5590887
20
46.3800246
40
3.9108556
50
84.0198069
51
90.1510378
0
ARC
8
front_labelLayer
10
77.5170875
20
45.8262486
40
4.4647304
50
89.5932959
51
100.3717923
0
ARC
8
front_labelLayer
10
77.2015694
20
47.4816693
40
2.7795819
50
100.1176513
51
118.1602719
0
ARC
8
front_labelLayer
10
76.8836061
20
48.1051691
40
2.0798726
50
118.5439567
51
139.1926876
0
ARC
8
front_labelLayer
10
77.1608515
20
47.9191337
40
2.4116383
50
140.1518995
51
160.3146336
0
ARC
8
front_labelLayer
10
78.8350412
20
47.2920522
40
4.1993013
50
159.953418
51
171.3801237
0
ARC
8
front_labelLayer
10
81.5699149
20
46.8524319
40
6.9692166
50
171.1765957
51
178.3217511
0
ARC
8
front_labelLayer
10
84.04936
20
46.7400753
40
9.4509721
50
178.0811118
51
180.0236205
0
ARC
8
front_labelLayer
10
77.1574813
20
48.4349069
40
2.9870837
50
116.9442854
51
147.6525707
0
ARC
8
front_labelLayer
10
77.4687002
20
47.9142781
40
3.5924578
50
115.8073431
51
117.6065946
0
ARC
8
front_labelLayer
10
77.6273512
20
47.5442538
40
3.9946869
50
94.3226822
51
115.545422
0
ARC
8
front_labelLayer
10
77.7229653
20
46.7135203
40
4.8303749
50
89.9579104
51
94.7108766
0
ARC
8
front_labelLayer
10
77.7624803
20
45.7196768
40
5.8243282
50
80.5585362
51
90.3538176
0
ARC
8
front_labelLayer
10
78.1264633
20
47.8280105
40
3.6848705
50
65.1094293
51
80.7638065
0
ARC
8
front_labelLayer
10
78.5519485
20
48.7704469
40
2.6509146
50
46.5584284
51
64.8782612
0
ARC
8
front_labelLayer
10
78.5859976
20
48.8686111
40
2.5565852
50
19.3848837
51
45.5997075
0
ARC
8
front_labelLayer
10
77.1069359
20
48.3136415
40
4.1361289
50
6.9633545
51
19.8363391
0
ARC
8
front_labelLayer
10
74.8257696
20
48.0069335
40
6.4377131
50
359.7631359
51
7.2115736
0
LINE
8
front_labelLayer
10
88.7727051
20
42.8437962
11
88.7727051
21
41.7151829
0
LINE
8
front_labelLayer
10
84.4004395
20
44.4256322
11
84.4004395
21
50.2197728
0
LINE
8
front_labelLayer
10
84.4004395
20
50.2197728
11
83.0052246
21
50.2197728
0
LINE
8
front_labelLayer
10
83.0052246
20
50.2197728
11
83.0052246
21
50.9307103
0
LINE
8
front_labelLayer
10
83.0052246
20
50.9307103
11
84.4004395
21
51.5438939
0
LINE
8
front_labelLayer
10
84.4004395
20
51.5438939
11
85.0225098
21
53.6233861
0
LINE
8
front_labelLayer
10
85.0225098
20
53.6233861
11
85.8756348
21
53.6233861
0
LINE
8
front_labelLayer
10
85.8756348
20
53.6233861
11
85.8756348
21
51.3661595
0
LINE
8
front_labelLayer
10
85.8756348
20
51.3661595
11
88.7016113
21
51.3661595
0
LINE
8
front_labelLayer
10
88.7016113
20
51.3661595
11
88.7016113
21
50.2197728
0
LINE
8
front_labelLayer
10
88.7016113
20
50.2197728
11
85.8756348
21
50.2197728
0
LINE
8
front_labelLayer
10
85.8756348
20
50.2197728
11
85.8756348
21
44.4878392
0
ARC
8
front_labelLayer
10
87.4498139
20
47.510805
40
4.8447537
50
269.8803569
51
278.3028163
0
ARC
8
front_labelLayer
10
87.4959173
20
47.1340879
40
4.4653361
50
278.4154691
51
279.0080359
0
ARC
8
front_labelLayer
10
86.9523909
20
50.6063316
40
7.9798589
50
278.9589472
51
280.5104605
0
ARC
8
front_labelLayer
10
87.4704331
20
47.8267708
40
5.1524365
50
280.4846997
51
282.6268331
0
ARC
8
front_labelLayer
10
87.9247107
20
45.8085394
40
3.0837125
50
282.5877261
51
285.5794302
0
ARC
8
front_labelLayer
10
88.1544987
20
44.9637874
40
2.2082893
50
285.7229912
51
286.257107
0
ARC
8
front_labelLayer
10
88.1524889
20
43.0269756
40
1.4510231
50
287.988876
51
295.3048083
0
ARC
8
front_labelLayer
10
87.8025253
20
44.085776
40
2.5661524
50
283.3069365
51
288.1198113
0
ARC
8
front_labelLayer
10
87.432851
20
45.6277823
40
4.1518471
50
280.0069147
51
283.3735781
0
ARC
8
front_labelLayer
10
87.1851598
20
46.9720599
40
5.5187242
50
279.1864427
51
280.1141812
0
ARC
8
front_labelLayer
10
87.0336103
20
47.8340153
40
6.39383
50
275.5260071
51
279.2939459
0
ARC
8
front_labelLayer
10
87.2047102
20
46.0468617
40
4.598506
50
270.8932502
51
275.5483573
0
ARC
8
front_labelLayer
10
87.2262234
20
45.228817
40
3.7802355
50
270.00292
51
270.7605137
0
ARC
8
front_labelLayer
10
87.1668873
20
45.3011175
40
3.852996
50
253.7848035
51
270.8852545
0
ARC
8
front_labelLayer
10
86.71041
20
43.7443543
40
2.2306948
50
190.381764
51
253.8772409
0
ARC
8
front_labelLayer
10
89.0370629
20
44.3734406
40
4.6369171
50
179.3550843
51
192.8477638
0
ARC
8
front_labelLayer
10
88.8461287
20
44.4692605
40
2.970552
50
179.6416538
51
189.7505947
0
ARC
8
front_labelLayer
10
87.7974678
20
44.2822186
40
1.9053744
50
189.5479464
51
205.7873574
0
ARC
8
front_labelLayer
10
87.3665183
20
44.0834962
40
1.4309158
50
206.1294915
51
221.4083617
0
ARC
8
front_labelLayer
10
87.3181898
20
44.0468258
40
1.3704215
50
221.5949182
51
262.3505166
0
ARC
8
front_labelLayer
10
87.4331123
20
44.6377968
40
1.9717459
50
261.3266136
51
270.1913494
0
LINE
8
left_outsideCutPath
10
142
20
94
11
142
21
60.125
0
LINE
8
left_outsideCutPath
10
142
20
60.125
11
139
21
60.125
0
LINE
8
left_outsideCutPath
10
139
20
60.125
11
139
21
36.875
0
LINE
8
left_outsideCutPath
10
139
20
36.875
11
142
21
36.875
0
LINE
8
left_outsideCutPath
10
142
20
36.875
11
142
21
13.625
0
LINE
8
left_outsideCutPath
10
142
20
13.625
11
142
21
3
0
LINE
8
left_outsideCutPath
10
142
20
3
11
158.875
21
3
0
LINE
8
left_outsideCutPath
10
158.875
20
3
11
158.875
21
6
0
LINE
8
left_outsideCutPath
10
158.875
20
6
11
182.125
21
6
0
LINE
8
left_outsideCutPath
10
182.125
20
6
11
182.125
21
3
0
LINE
8
left_outsideCutPath
10
182.125
20
3
11
205.375
21
3
0
LINE
8
left_outsideCutPath
10
205.375
20
3
11
205.375
21
6
0
LINE
8
left_outsideCutPath
10
205.375
20
6
11
228.625
21
6
0
LINE
8
left_outsideCutPath
10
228.625
20
6
11
228.625
21
3
0
LINE
8
left_outsideCutPath
10
228.625
20
3
11
251.875
21
3
0
LINE
8
left_outsideCutPath
10
251.875
20
3
11
251.875
21
6
0
LINE
8
left_outsideCutPath
10
251.875
20
6
11
275.125
21
6
0
LINE
8
left_outsideCutPath
10
275.125
20
6
11
275.125
21
3
0
LINE
8
left_outsideCutPath
10
275.125
20
3
11
292
21
3
0
LINE
8
left_outsideCutPath
10
292
20
3
11
292
21
36.875
0
LINE
8
left_outsideCutPath
10
292
20
36.875
11
295
21
36.875
0
LINE
8
left_outsideCutPath
10
295
20
36.875
11
295
21
60.125
0
LINE
8
left_outsideCutPath
10
295
20
60.125
11
292
21
60.125
0
LINE
8
left_outsideCutPath
10
292
20
60.125
11
292
21
83.375
0
LINE
8
left_outsideCutPath
10
292
20
83.375
11
292
21
94
0
LINE
8
left_outsideCutPath
10
292
20
94
11
275.125
21
94
0
LINE
8
left_outsideCutPath
10
275.125
20
94
11
275.125
21
91
0
LINE
8
left_outsideCutPath
10
275.125
20
91
11
251.875
21
91
0
LINE
8
left_outsideCutPath
10
251.875
20
91
11
251.875
21
94
0
LINE
8
left_outsideCutPath
10
251.875
20
94
11
228.625
21
94
0
LINE
8
left_outsideCutPath
10
228.625
20
94
11
228.625
21
91
0
LINE
8
left_outsideCutPath
10
228.625
20
91
11
205.375
21
91
0
LINE
8
left_outsideCutPath
10
205.375
20
91
11
205.375
21
94
0
LINE
8
left_outsideCutPath
10
205.375
20
94
11
182.125
21
94
0
LINE
8
left_outsideCutPath
10
182.125
20
94
11
182.125
21
91
0
LINE
8
left_outsideCutPath
10
182.125
20
91
11
158.875
21
91
0
LINE
8
left_outsideCutPath
10
158.875
20
91
11
158.875
21
94
0
LINE
8
left_outsideCutPath
10
158.875
20
94
11
142
21
94
0
LINE
8
left_labelLayer
10
205.7449707
20
55.4540501
11
205.7449707
21
41.6263157
0
LINE
8
left_labelLayer
10
205.7449707
20
41.6263157
11
204.2697754
21
41.6263157
0
LINE
8
left_labelLayer
10
204.2697754
20
41.6263157
11
204.2697754
21
55.4540501
0
LINE
8
left_labelLayer
10
204.2697754
20
55.4540501
11
205.7449707
21
55.4540501
0
LINE
8
left_labelLayer
10
216.5689941
20
47.1627415
11
216.5689941
21
46.2296361
0
LINE
8
left_labelLayer
10
216.5689941
20
46.2296361
11
209.8595215
21
46.2296361
0
LINE
8
left_labelLayer
10
216.1513184
20
43.3947728
11
216.1513184
21
42.0795384
0
LINE
8
left_labelLayer
10
209.8950684
20
47.4293431
11
214.9871582
21
47.4293431
0
ARC
8
left_labelLayer
10
212.9391412
20
47.1809207
40
5.7325445
50
256.008796
51
270.4848072
0
ARC
8
left_labelLayer
10
212.5216983
20
45.5603216
40
4.0591192
50
223.5465789
51
256.1957061
0
ARC
8
left_labelLayer
10
212.7519809
20
45.7276944
40
4.3415022
50
194.0877229
51
223.0538203
0
ARC
8
left_labelLayer
10
214.8620146
20
46.30471
40
6.5286872
50
181.3574661
51
194.4919838
0
ARC
8
left_labelLayer
10
216.7569024
20
46.414591
40
8.4258967
50
179.9886702
51
181.7991976
0
ARC
8
left_labelLayer
10
216.0770576
20
46.4682181
40
7.746226
50
168.9539317
51
180.3843372
0
ARC
8
left_labelLayer
10
213.5471723
20
46.9833449
40
5.1645556
50
149.4071023
51
169.1853742
0
ARC
8
left_labelLayer
10
212.8423152
20
47.3557578
40
4.3684437
50
140.1056183
51
148.9067094
0
ARC
8
left_labelLayer
10
212.4092577
20
47.7550145
40
3.7802248
50
92.4762679
51
140.5386337
0
ARC
8
left_labelLayer
10
212.6022271
20
46.3289239
40
5.2149711
50
89.9638479
51
93.9176021
0
ARC
8
left_labelLayer
10
212.6482681
20
47.049741
40
4.4943562
50
74.2125942
51
90.5450082
0
ARC
8
left_labelLayer
10
212.9297634
20
48.0868931
40
3.4197603
50
41.2064644
51
74.0232702
0
ARC
8
left_labelLayer
10
212.3966667
20
47.6255363
40
4.1247627
50
11.5994229
51
41.1496103
0
ARC
8
left_labelLayer
10
210.5649539
20
47.2031083
40
6.004176
50
359.6147907
51
12.0336357
0
ARC
8
left_labelLayer
10
215.7792275
20
46.3479214
40
5.9208877
50
181.1447099
51
190.8007147
0
ARC
8
left_labelLayer
10
213.6904071
20
45.9359468
40
3.7918927
50
190.6005833
51
206.0275248
0
ARC
8
left_labelLayer
10
212.766237
20
45.4990398
40
2.7697631
50
206.2950207
51
222.5557905
0
ARC
8
left_labelLayer
10
212.6843471
20
45.4561644
40
2.68055
50
223.0645126
51
258.1401429
0
ARC
8
left_labelLayer
10
213.0103498
20
46.7985177
40
4.0614775
50
257.5311964
51
270.4319221
0
ARC
8
left_labelLayer
10
213.0139869
20
50.5284332
40
7.7913243
50
270.1984048
51
292.2090327
0
ARC
8
left_labelLayer
10
212.6397205
20
51.6032467
40
8.9280662
50
291.8254869
51
293.1613144
0
ARC
8
left_labelLayer
10
212.6219313
20
50.2019329
40
8.8560638
50
287.9022823
51
293.4861725
0
ARC
8
left_labelLayer
10
213.2643514
20
48.2198305
40
6.7724544
50
281.9935636
51
287.8851245
0
ARC
8
left_labelLayer
10
213.4200376
20
47.6602863
40
6.1928774
50
275.9054709
51
281.66037
0
ARC
8
left_labelLayer
10
213.1083527
20
50.5696
40
9.1188262
50
271.9119874
51
275.9726933
0
ARC
8
left_labelLayer
10
212.9945801
20
53.4675835
40
12.0190041
50
269.9669469
51
271.9931242
0
ARC
8
left_labelLayer
10
212.5594366
20
47.4008234
40
2.9079544
50
89.4422452
51
106.2089678
0
ARC
8
left_labelLayer
10
212.3844909
20
48.0387015
40
2.24662
50
106.4656975
51
137.9176329
0
ARC
8
left_labelLayer
10
212.8860639
20
47.5982363
40
2.914092
50
138.0994618
51
160.5866295
0
ARC
8
left_labelLayer
10
214.1753594
20
47.123927
40
4.2877774
50
160.3353467
51
172.5315322
0
ARC
8
left_labelLayer
10
215.445019
20
46.9205002
40
5.5732283
50
172.1545423
51
174.7615263
0
ARC
8
left_labelLayer
10
209.9603041
20
47.4579007
40
5.0269352
50
359.6745056
51
8.922452
0
ARC
8
left_labelLayer
10
211.7565413
20
47.7505701
40
3.207059
50
8.734221
51
23.2771989
0
ARC
8
left_labelLayer
10
212.6092877
20
48.1085323
40
2.282278
50
23.4821272
51
39.7072096
0
ARC
8
left_labelLayer
10
212.8187501
20
48.2652778
40
2.0210386
50
40.0823
51
80.6243315
0
ARC
8
left_labelLayer
10
212.6031413
20
47.2769203
40
3.0317587
50
79.6468852
51
90.2909843
0
LINE
8
left_labelLayer
10
223.4739746
20
51.3661595
11
223.4739746
21
50.2197728
0
LINE
8
left_labelLayer
10
223.4739746
20
50.2197728
11
220.9945801
21
50.2197728
0
LINE
8
left_labelLayer
10
220.9945801
20
50.2197728
11
220.9945801
21
41.6263157
0
LINE
8
left_labelLayer
10
220.9945801
20
41.6263157
11
219.5193848
21
41.6263157
0
LINE
8
left_labelLayer
10
219.5193848
20
41.6263157
11
219.5193848
21
50.2197728
0
LINE
8
left_labelLayer
10
219.5193848
20
50.2197728
11
217.7775879
21
50.2197728
0
LINE
8
left_labelLayer
10
217.7775879
20
50.2197728
11
217.7775879
21
50.8862767
0
LINE
8
left_labelLayer
10
217.7775879
20
50.8862767
11
219.5193848
21
51.4194798
0
LINE
8
left_labelLayer
10
219.5193848
20
51.4194798
11
219.5193848
21
51.9615697
0
LINE
8
left_labelLayer
10
224.4692871
20
55.2407689
11
224.0871582
21
54.0588353
0
LINE
8
left_labelLayer
10
220.9945801
20
51.9971165
11
220.9945801
21
51.3661595
0
LINE
8
left_labelLayer
10
220.9945801
20
51.3661595
11
223.4739746
21
51.3661595
0
ARC
8
left_labelLayer
10
225.4978285
20
52.0303019
40
5.9788389
50
167.5775903
51
180.6586821
0
ARC
8
left_labelLayer
10
222.6863869
20
52.685768
40
3.0924178
50
141.7433886
51
168.232206
0
ARC
8
left_labelLayer
10
222.2286248
20
52.9246861
40
2.5868035
50
98.2551422
51
139.6203424
0
ARC
8
left_labelLayer
10
222.6305468
20
51.0679592
40
4.4839193
50
89.6696891
51
99.9314272
0
ARC
8
left_labelLayer
10
222.6316693
20
50.8014212
40
4.7504472
50
81.5640676
51
89.7017604
0
ARC
8
left_labelLayer
10
222.2976993
20
48.4714424
40
7.1042206
50
75.9740125
51
81.6564871
0
ARC
8
left_labelLayer
10
221.7246134
20
46.0944065
40
9.5493026
50
73.2963592
51
76.0946315
0
ARC
8
left_labelLayer
10
221.8689218
20
47.2474467
40
7.1634898
50
71.9613411
51
76.5918456
0
ARC
8
left_labelLayer
10
222.4246651
20
49.6049647
40
4.7413658
50
76.5183629
51
83.0216691
0
ARC
8
left_labelLayer
10
222.6182592
20
51.1618072
40
3.172537
50
83.0760844
51
89.7927236
0
ARC
8
left_labelLayer
10
222.6118855
20
52.3449473
40
1.9894563
50
89.4858937
51
103.4197543
0
ARC
8
left_labelLayer
10
222.4325223
20
53.0340405
40
1.2776337
50
102.7677438
51
144.3380276
0
ARC
8
left_labelLayer
10
222.7938662
20
52.8015489
40
1.706897
50
145.0688615
51
162.1801813
0
ARC
8
left_labelLayer
10
224.0327868
20
52.3847121
40
3.0139929
50
161.8437373
51
171.7846945
0
ARC
8
left_labelLayer
10
226.0534519
20
52.0812113
40
5.0573036
50
171.6527444
51
178.4383876
0
ARC
8
left_labelLayer
10
227.9595996
20
51.9999331
40
6.96502
50
178.1973434
51
180.0231697
0
LINE
8
left_labelLayer
10
229.7302246
20
42.8437962
11
229.7302246
21
41.7151829
0
LINE
8
left_labelLayer
10
225.357959
20
44.4256322
11
225.357959
21
50.2197728
0
LINE
8
left_labelLayer
10
225.357959
20
50.2197728
11
223.9627441
21
50.2197728
0
LINE
8
left_labelLayer
10
223.9627441
20
50.2197728
11
223.9627441
21
50.9307103
0
LINE
8
left_labelLayer
10
223.9627441
20
50.9307103
11
225.357959
21
51.5438939
0
LINE
8
left_labelLayer
10
225.357959
20
51.5438939
11
225.9800293
21
53.6233861
0
LINE
8
left_labelLayer
10
225.9800293
20
53.6233861
11
226.8331543
21
53.6233861
0
LINE
8
left_labelLayer
10
226.8331543
20
53.6233861
11
226.8331543
21
51.3661595
0
LINE
8
left_labelLayer
10
226.8331543
20
51.3661595
11
229.6591309
21
51.3661595
0
LINE
8
left_labelLayer
10
229.6591309
20
51.3661595
11
229.6591309
21
50.2197728
0
LINE
8
left_labelLayer
10
229.6591309
20
50.2197728
11
226.8331543
21
50.2197728
0
LINE
8
left_labelLayer
10
226.8331543
20
50.2197728
11
226.8331543
21
44.4878392
0
ARC
8
left_labelLayer
10
228.4073334
20
47.510805
40
4.8447537
50
269.8803569
51
278.3028163
0
ARC
8
left_labelLayer
10
228.4534369
20
47.1340879
40
4.4653361
50
278.4154691
51
279.0080359
0
ARC
8
left_labelLayer
10
227.9099105
20
50.6063316
40
7.9798589
50
278.9589472
51
280.5104605
0
ARC
8
left_labelLayer
10
228.4279526
20
47.8267708
40
5.1524365
50
280.4846997
51
282.6268331
0
ARC
8
left_labelLayer
10
228.8822303
20
45.8085394
40
3.0837125
50
282.5877261
51
285.5794302
0
ARC
8
left_labelLayer
10
229.1120182
20
44.9637874
40
2.2082893
50
285.7229912
51
286.257107
0
ARC
8
left_labelLayer
10
229.1100084
20
43.0269756
40
1.4510231
50
287.988876
51
295.3048083
0
ARC
8
left_labelLayer
10
228.7600448
20
44.085776
40
2.5661524
50
283.3069365
51
288.1198113
0
ARC
8
left_labelLayer
10
228.3903706
20
45.6277823
40
4.1518471
50
280.0069147
51
283.3735781
0
ARC
8
left_labelLayer
10
228.1426794
20
46.9720599
40
5.5187242
50
279.1864427
51
280.1141812
0
ARC
8
left_labelLayer
10
227.9911298
20
47.8340153
40
6.39383
50
275.5260071
51
279.2939459
0
ARC
8
left_labelLayer
10
228.1622297
20
46.0468617
40
4.598506
50
270.8932502
51
275.5483573
0
ARC
8
left_labelLayer
10
228.1837429
20
45.228817
40
3.7802355
50
270.00292
51
270.7605137
0
ARC
8
left_labelLayer
10
228.1244068
20
45.3011175
40
3.852996
50
253.7848035
51
270.8852545
0
ARC
8
left_labelLayer
10
227.6679295
20
43.7443543
40
2.2306948
50
190.381764
51
253.8772409
0
ARC
8
left_labelLayer
10
229.9945824
20
44.3734406
40
4.6369171
50
179.3550843
51
192.8477638
0
ARC
8
left_labelLayer
10
229.8036482
20
44.4692605
40
2.970552
50
179.6416538
51
189.7505947
0
ARC
8
left_labelLayer
10
228.7549873
20
44.2822186
40
1.9053744
50
189.5479464
51
205.7873574
0
ARC
8
left_labelLayer
10
228.3240378
20
44.0834962
40
1.4309158
50
206.1294915
51
221.4083617
0
ARC
8
left_labelLayer
10
228.2757094
20
44.0468258
40
1.3704215
50
221.5949182
51
262.3505166
0
ARC
8
left_labelLayer
10
228.3906318
20
44.6377968
40
1.9717459
50
261.3266136
51
270.1913494
0
LINE
8
top_outsideCutPath
10
301
20
156
11
301
21
139.125
0
LINE
8
top_outsideCutPath
10
301
20
139.125
11
298
21
139.125
0
LINE
8
top_outsideCutPath
10
298
20
139.125
11
298
21
115.875
0
LINE
8
top_outsideCutPath
10
298
20
115.875
11
301
21
115.875
0
LINE
8
top_outsideCutPath
10
301
20
115.875
11
301
21
92.625
0
LINE
8
top_outsideCutPath
10
301
20
92.625
11
298
21
92.625
0
LINE
8
top_outsideCutPath
10
298
20
92.625
11
298
21
69.375
0
LINE
8
top_outsideCutPath
10
298
20
69.375
11
301
21
69.375
0
LINE
8
top_outsideCutPath
10
301
20
69.375
11
301
21
46.125
0
LINE
8
top_outsideCutPath
10
301
20
46.125
11
298
21
46.125
0
LINE
8
top_outsideCutPath
10
298
20
46.125
11
298
21
22.875
0
LINE
8
top_outsideCutPath
10
298
20
22.875
11
301
21
22.875
0
LINE
8
top_outsideCutPath
10
301
20
22.875
11
301
21
6
0
LINE
8
top_outsideCutPath
10
301
20
6
11
331.125
21
6
0
LINE
8
top_outsideCutPath
10
331.125
20
6
11
331.125
21
3
0
LINE
8
top_outsideCutPath
10
331.125
20
3
11
354.375
21
3
0
LINE
8
top_outsideCutPath
10
354.375
20
3
11
354.375
21
6
0
LINE
8
top_outsideCutPath
10
354.375
20
6
11
377.625
21
6
0
LINE
8
top_outsideCutPath
10
377.625
20
6
11
377.625
21
3
0
LINE
8
top_outsideCutPath
10
377.625
20
3
11
400.875
21
3
0
LINE
8
top_outsideCutPath
10
400.875
20
3
11
400.875
21
6
0
LINE
8
top_outsideCutPath
10
400.875
20
6
11
424.125
21
6
0
LINE
8
top_outsideCutPath
10
424.125
20
6
11
431
21
6
0
LINE
8
top_outsideCutPath
10
431
20
6
11
431
21
22.875
0
LINE
8
top_outsideCutPath
10
431
20
22.875
11
434
21
22.875
0
LINE
8
top_outsideCutPath
10
434
20
22.875
11
434
21
46.125
0
LINE
8
top_outsideCutPath
10
434
20
46.125
11
431
21
46.125
0
LINE
8
top_outsideCutPath
10
431
20
46.125
11
431
21
69.375
0
LINE
8
top_outsideCutPath
10
431
20
69.375
11
434
21
69.375
0
LINE
8
top_outsideCutPath
10
434
20
69.375
11
434
21
92.625
0
LINE
8
top_outsideCutPath
10
434
20
92.625
11
431
21
92.625
0
LINE
8
top_outsideCutPath
10
431
20
92.625
11
431
21
115.875
0
LINE
8
top_outsideCutPath
10
431
20
115.875
11
434
21
115.875
0
LINE
8
top_outsideCutPath
10
434
20
115.875
11
434
21
139.125
0
LINE
8
top_outsideCutPath
10
434
20
139.125
11
431
21
139.125
0
LINE
8
top_outsideCutPath
10
431
20
139.125
11
431
21
156
0
LINE
8
top_outsideCutPath
10
431
20
156
11
400.875
21
156
0
LINE
8
top_outsideCutPath
10
400.875
20
156
11
400.875
21
159
0
LINE
8
top_outsideCutPath
10
400.875
20
159
11
377.625
21
159
0
LINE
8
top_outsideCutPath
10
377.625
20
159
11
377.625
21
156
0
LINE
8
top_outsideCutPath
10
377.625
20
156
11
354.375
21
156
0
LINE
8
top_outsideCutPath
10
354.375
20
156
11
354.375
21
159
0
LINE
8
top_outsideCutPath
10
354.375
20
159
11
331.125
21
159
0
LINE
8
top_outsideCutPath
10
331.125
20
159
11
331.125
21
156
0
LINE
8
top_outsideCutPath
10
331.125
20
156
11
307.875
21
156
0
LINE
8
top_outsideCutPath
10
307.875
20
156
11
301
21
156
0
LINE
8
top_labelLayer
10
354.2327
20
77.121875
11
354.2327
21
75.4351563
0
LINE
8
top_labelLayer
10
347.698325
20
79.4859375
11
347.698325
21
88.1453125
0
LINE
8
top_labelLayer
10
347.698325
20
88.1453125
11
345.6131688
21
88.1453125
0
LINE
8
top_labelLayer
10
345.6131688
20
88.1453125
11
345.6131688
21
89.2078125
0
LINE
8
top_labelLayer
10
345.6131688
20
89.2078125
11
347.698325
21
90.1242188
0
LINE
8
top_labelLayer
10
347.698325
20
90.1242188
11
348.6280125
21
93.2320313
0
LINE
8
top_labelLayer
10
348.6280125
20
93.2320313
11
349.9030125
21
93.2320313
0
LINE
8
top_labelLayer
10
349.9030125
20
93.2320313
11
349.9030125
21
89.8585938
0
LINE
8
top_labelLayer
10
349.9030125
20
89.8585938
11
354.12645
21
89.8585938
0
LINE
8
top_labelLayer
10
354.12645
20
89.8585938
11
354.12645
21
88.1453125
0
LINE
8
top_labelLayer
10
354.12645
20
88.1453125
11
349.9030125
21
88.1453125
0
LINE
8
top_labelLayer
10
349.9030125
20
88.1453125
11
349.9030125
21
79.5789063
0
ARC
8
top_labelLayer
10
352.2556319
20
84.0967293
40
7.2404951
50
269.8803562
51
278.3028341
0
ARC
8
top_labelLayer
10
352.3244585
20
83.5342213
40
6.673957
50
278.4155027
51
279.0080262
0
ARC
8
top_labelLayer
10
351.5122715
20
88.7227839
40
11.9256968
50
278.9589346
51
280.5104799
0
ARC
8
top_labelLayer
10
352.2863487
20
84.5694185
40
7.7008156
50
280.4847981
51
282.6268004
0
ARC
8
top_labelLayer
10
352.9654353
20
81.5524231
40
4.6083403
50
282.5876567
51
285.5795458
0
ARC
8
top_labelLayer
10
353.3065474
20
80.2980273
40
3.308429
50
285.7236584
51
286.2564618
0
ARC
8
top_labelLayer
10
353.3057824
20
77.3956414
40
2.168566
50
287.9888713
51
295.3047902
0
ARC
8
top_labelLayer
10
352.7827382
20
78.9781041
40
3.8352153
50
283.3069812
51
288.1197474
0
ARC
8
top_labelLayer
10
352.2302656
20
81.2826263
40
6.2050287
50
280.0069418
51
283.3735669
0
ARC
8
top_labelLayer
10
351.8607298
20
83.2879429
40
8.2440657
50
279.1861996
51
280.1143542
0
ARC
8
top_labelLayer
10
351.6336108
20
84.5797937
40
9.5556232
50
275.526017
51
279.2939522
0
ARC
8
top_labelLayer
10
351.8893185
20
81.9089111
40
6.8725299
50
270.8932833
51
275.5483652
0
ARC
8
top_labelLayer
10
351.9214672
20
80.685946
40
5.6492272
50
270.0029954
51
270.7606368
0
ARC
8
top_labelLayer
10
351.8327966
20
80.7943561
40
5.7583246
50
253.7848045
51
270.8852527
0
ARC
8
top_labelLayer
10
351.1505886
20
78.4677639
40
3.3337856
50
190.3817643
51
253.8772421
0
ARC
8
top_labelLayer
10
354.6277986
20
79.4079389
40
6.9299126
50
179.3551024
51
192.8477537
0
ARC
8
top_labelLayer
10
354.3424426
20
79.5511404
40
4.4395169
50
179.6416552
51
189.7505722
0
ARC
8
top_labelLayer
10
352.7752021
20
79.2716051
40
2.847592
50
189.5479464
51
205.7873598
0
ARC
8
top_labelLayer
10
352.1311383
20
78.974608
40
2.1385022
50
206.1294524
51
221.4083901
0
ARC
8
top_labelLayer
10
352.0589188
20
78.919809
40
2.0481022
50
221.5949149
51
262.3505202
0
ARC
8
top_labelLayer
10
352.2306743
20
79.8030502
40
2.9468166
50
261.3266466
51
270.1912872
0
ARC
8
top_labelLayer
10
358.3174969
20
82.5169777
40
11.3881182
50
349.176191
51
0.3862587
0
ARC
8
top_labelLayer
10
362.151611
20
81.7526399
40
7.4787443
50
330.2507023
51
349.4116451
0
ARC
8
top_labelLayer
10
363.3315571
20
81.1393497
40
6.1502199
50
318.1439704
51
329.7566225
0
ARC
8
top_labelLayer
10
363.5445184
20
80.9686824
40
5.8777407
50
278.8959153
51
317.9979102
0
ARC
8
top_labelLayer
10
362.9957939
20
83.5976712
40
8.5610336
50
269.7502798
51
279.80332
0
ARC
8
top_labelLayer
10
362.9068009
20
82.1164008
40
7.0798707
50
253.5436905
51
270.418241
0
ARC
8
top_labelLayer
10
362.6711291
20
81.2047594
40
6.1388964
50
238.8115656
51
253.2428249
0
ARC
8
top_labelLayer
10
362.595065
20
81.0517933
40
5.9686653
50
207.7946982
51
238.6757945
0
ARC
8
top_labelLayer
10
363.686411
20
81.7202013
40
7.2462468
50
205.6560288
51
208.4461662
0
ARC
8
top_labelLayer
10
364.5271353
20
82.0705051
40
8.1558963
50
188.9102471
51
205.3171442
0
ARC
8
top_labelLayer
10
367.3602232
20
82.5503377
40
11.0291712
50
179.7744758
51
189.0932825
0
ARC
8
top_labelLayer
10
367.7781338
20
82.6712842
40
11.4472589
50
169.2442985
51
180.3880771
0
ARC
8
top_labelLayer
10
363.8907292
20
83.4396838
40
7.4848065
50
150.7111461
51
169.4695513
0
ARC
8
top_labelLayer
10
362.6497639
20
84.0769635
40
6.0909311
50
138.1759572
51
150.2287319
0
ARC
8
top_labelLayer
10
362.4433271
20
84.2353783
40
5.83149
50
99.1759341
51
137.9832714
0
ARC
8
top_labelLayer
10
363.0114916
20
81.5615338
40
8.562778
50
89.7326269
51
100.0759798
0
ARC
8
top_labelLayer
10
363.1250497
20
82.7162757
40
7.4083086
50
73.5222763
51
90.5692289
0
ARC
8
top_labelLayer
10
363.5595032
20
84.2947599
40
5.7715069
50
41.1445682
51
73.2133877
0
ARC
8
top_labelLayer
10
362.7301654
20
83.5819561
40
6.8650442
50
13.501436
51
41.0703394
0
ARC
8
top_labelLayer
10
359.5260345
20
82.743478
40
10.1766074
50
1.1277175
51
13.8800006
0
ARC
8
top_labelLayer
10
356.7654835
20
82.595572
40
12.9398728
50
359.9919325
51
1.5419313
0
ARC
8
top_labelLayer
10
369.7798495
20
82.5364538
40
11.164484
50
179.7059564
51
187.9160794
0
ARC
8
top_labelLayer
10
365.6850651
20
81.9482412
40
7.027734
50
187.7639199
51
200.0976918
0
ARC
8
top_labelLayer
10
363.4292702
20
81.1217153
40
4.6252865
50
200.084602
51
216.9131628
0
ARC
8
top_labelLayer
10
362.6055286
20
80.5335253
40
3.6134803
50
217.3009604
51
261.7099049
0
ARC
8
top_labelLayer
10
362.9879352
20
82.3583331
40
5.4755716
50
260.5033226
51
270.2476917
0
ARC
8
top_labelLayer
10
363.0609262
20
82.0035044
40
5.1209294
50
269.4481726
51
284.725559
0
ARC
8
top_labelLayer
10
363.4663199
20
80.500026
40
3.5638005
50
284.566234
51
322.6333791
0
ARC
8
top_labelLayer
10
362.5184896
20
81.1847902
40
4.7327999
50
323.0089323
51
342.6390543
0
ARC
8
top_labelLayer
10
359.8074759
20
82.0708257
40
7.584784
50
342.3615852
51
353.7537485
0
ARC
8
top_labelLayer
10
355.8078817
20
82.552925
40
11.6131714
50
353.5363
51
0.2014183
0
ARC
8
top_labelLayer
10
356.4206944
20
82.6498971
40
11.0004301
50
359.7075566
51
7.8972827
0
ARC
8
top_labelLayer
10
360.4493569
20
83.2274471
40
6.9306464
50
7.7439783
51
20.069033
0
ARC
8
top_labelLayer
10
362.6942729
20
84.051248
40
4.5393544
50
20.0257137
51
37.4350375
0
ARC
8
top_labelLayer
10
363.4391298
20
84.579786
40
3.6267789
50
37.9577672
51
80.4006152
0
ARC
8
top_labelLayer
10
363.0158556
20
82.691172
40
5.5604757
50
79.3453567
51
90.3174907
0
ARC
8
top_labelLayer
10
362.9374789
20
83.0048799
40
5.2468982
50
89.4805882
51
103.8805021
0
ARC
8
top_labelLayer
10
362.4966045
20
84.6837287
40
3.5114007
50
103.4685233
51
142.3118868
0
ARC
8
top_labelLayer
10
363.3536982
20
84.0809589
40
4.5584154
50
142.9025645
51
162.3749634
0
ARC
8
top_labelLayer
10
366.054405
20
83.1809543
40
7.404964
50
162.06531
51
173.1674939
0
ARC
8
top_labelLayer
10
370.2655341
20
82.6438466
40
11.6501295
50
173.0086082
51
180.2463776
0
LINE
8
top_labelLayer
10
375.7748875
20
77.175
11
375.6155125
21
77.175
0
LINE
8
top_labelLayer
10
375.7748875
20
74.7578125
11
375.7748875
21
68.7679688
0
LINE
8
top_labelLayer
10
375.7748875
20
68.7679688
11
373.5702
21
68.7679688
0
LINE
8
top_labelLayer
10
373.5702
20
68.7679688
11
373.5702
21
89.8585938
0
LINE
8
top_labelLayer
10
373.5702
20
89.8585938
11
375.3631688
21
89.8585938
0
LINE
8
top_labelLayer
10
375.3631688
20
89.8585938
11
375.6686375
21
87.8664063
0
LINE
8
top_labelLayer
10
375.6686375
20
87.8664063
11
375.7748875
21
87.8664063
0
LINE
8
top_labelLayer
10
375.7748875
20
83.0851563
11
375.7748875
21
82.59375
0
ARC
8
top_labelLayer
10
380.3064584
20
81.7239074
40
6.687292
50
255.7755337
51
270.3185467
0
ARC
8
top_labelLayer
10
380.1156212
20
80.8760406
40
5.8185746
50
245.980159
51
255.545578
0
ARC
8
top_labelLayer
10
379.7459889
20
80.0164595
40
4.8829848
50
215.5850226
51
245.8361711
0
ARC
8
top_labelLayer
10
354.9157198
20
74.5592395
40
20.8644104
50
2.950315
51
7.2020938
0
ARC
8
top_labelLayer
10
358.2913327
20
74.7481017
40
17.4835574
50
0.0318236
51
2.901587
0
ARC
8
top_labelLayer
10
380.6313769
20
84.4556878
40
5.9345168
50
132.3565101
51
144.919585
0
ARC
8
top_labelLayer
10
379.7222585
20
85.4475068
40
4.5890857
50
115.4006166
51
132.3118298
0
ARC
8
top_labelLayer
10
380.0768745
20
84.5842348
40
5.5212426
50
97.7066356
51
114.8821523
0
ARC
8
top_labelLayer
10
380.3245344
20
82.9780629
40
7.1461814
50
89.8468372
51
97.9474372
0
ARC
8
top_labelLayer
10
380.4118711
20
83.3666258
40
6.7579374
50
74.1923586
51
90.5785146
0
ARC
8
top_labelLayer
10
380.8794835
20
85.0664957
40
4.9949894
50
38.0523379
51
74.0417366
0
ARC
8
top_labelLayer
10
379.5897314
20
84.0779547
40
6.6199408
50
16.335595
51
37.9090619
0
ARC
8
top_labelLayer
10
376.2014985
20
83.0343591
40
10.1650337
50
4.5766628
51
16.6088678
0
ARC
8
top_labelLayer
10
372.0301825
20
82.6187215
40
14.3564455
50
359.9003402
51
4.9018104
0
ARC
8
top_labelLayer
10
373.4602377
20
82.5174852
40
12.9265936
50
350.6562846
51
0.3380377
0
ARC
8
top_labelLayer
10
377.9666532
20
81.7509944
40
8.3555599
50
335.8306005
51
350.825481
0
ARC
8
top_labelLayer
10
379.94896
20
80.8954022
40
6.1967918
50
321.3161343
51
335.5436265
0
ARC
8
top_labelLayer
10
380.7067957
20
80.2778797
40
5.2192614
50
274.0640091
51
321.4081
0
ARC
8
top_labelLayer
10
380.3537441
20
82.5142098
40
7.4774979
50
269.9225593
51
275.5481817
0
ARC
8
top_labelLayer
10
379.9794785
20
81.8991566
40
6.3525682
50
89.5904385
51
100.3501752
0
ARC
8
top_labelLayer
10
379.5264931
20
84.2788754
40
3.9302285
50
100.0868147
51
118.1917928
0
ARC
8
top_labelLayer
10
379.0624493
20
85.1839145
40
2.9133867
50
118.5569586
51
141.0243408
0
ARC
8
top_labelLayer
10
379.769557
20
84.6851312
40
3.7772617
50
141.8890308
51
160.5973259
0
ARC
8
top_labelLayer
10
382.2546328
20
83.7732825
40
6.4242165
50
160.2895642
51
171.2453088
0
ARC
8
top_labelLayer
10
386.3406133
20
83.1144918
40
10.5629027
50
171.0868592
51
178.3247373
0
ARC
8
top_labelLayer
10
389.8055655
20
82.9498234
40
14.0313306
50
178.066251
51
179.447371
0
ARC
8
top_labelLayer
10
390.3519928
20
82.5368286
40
14.5772164
50
179.7762697
51
185.7075265
0
ARC
8
top_labelLayer
10
384.6047347
20
81.9446588
40
8.7995765
50
185.5924955
51
194.2050604
0
ARC
8
top_labelLayer
10
380.9230699
20
80.9891405
40
4.9960582
50
193.9430422
51
208.0218347
0
ARC
8
top_labelLayer
10
379.4334766
20
80.231346
40
3.3252172
50
208.5536794
51
217.5605136
0
ARC
8
top_labelLayer
10
379.3121002
20
80.180859
40
3.1984046
50
218.1690484
51
253.8047108
0
ARC
8
top_labelLayer
10
379.9053408
20
82.0098787
40
5.120651
50
253.1382355
51
266.8483184
0
ARC
8
top_labelLayer
10
380.0716933
20
83.9716928
40
7.088883
50
266.3775787
51
270.0510753
0
ARC
8
top_labelLayer
10
380.1282139
20
80.5972859
40
3.7148126
50
269.2256907
51
292.0430466
0
ARC
8
top_labelLayer
10
380.178336
20
80.2985825
40
3.4197631
50
293.1429677
51
324.1353864
0
ARC
8
top_labelLayer
10
379.4336493
20
80.9290789
40
4.3932845
50
323.1615765
51
325.0153121
0
ARC
8
top_labelLayer
10
378.6362129
20
81.4235378
40
5.3303848
50
325.5753749
51
344.1504695
0
ARC
8
top_labelLayer
10
375.8778746
20
82.2389335
40
8.2066103
50
343.9336112
51
355.1137554
0
ARC
8
top_labelLayer
10
372.3566624
20
82.596234
40
11.7455935
50
354.8402259
51
0.1174567
0
ARC
8
top_labelLayer
10
372.9768663
20
82.6764621
40
11.1255066
50
359.7108311
51
7.8610441
0
ARC
8
top_labelLayer
10
377.0220985
20
83.2530998
40
7.0394443
50
7.7149598
51
19.8859723
0
ARC
8
top_labelLayer
10
379.2468661
20
84.056696
40
4.6739938
50
19.8991411
51
35.8980155
0
ARC
8
top_labelLayer
10
380.2392168
20
84.8082264
40
3.4295784
50
35.4481584
51
85.2266594
0
ARC
8
top_labelLayer
10
380.0319075
20
83.508167
40
4.7434007
50
84.0379124
51
90.0847951
0
LINE
8
back_outsideCutPath
10
0
20
188
11
0
21
154.125
0
LINE
8
back_outsideCutPath
10
0
20
154.125
11
3
21
154.125
0
LINE
8
back_outsideCutPath
10
3
20
154.125
11
3
21
130.875
0
LINE
8
back_outsideCutPath
10
3
20
130.875
11
0
21
130.875
0
LINE
8
back_outsideCutPath
10
0
20
130.875
11
0
21
107.625
0
LINE
8
back_outsideCutPath
10
0
20
107.625
11
0
21
97
0
LINE
8
back_outsideCutPath
10
0
20
97
11
33.125
21
97
0
LINE
8
back_outsideCutPath
10
33.125
20
97
11
33.125
21
100
0
LINE
8
back_outsideCutPath
10
33.125
20
100
11
56.375
21
100
0
LINE
8
back_outsideCutPath
10
56.375
20
100
11
56.375
21
97
0
LINE
8
back_outsideCutPath
10
56.375
20
97
11
79.625
21
97
0
LINE
8
back_outsideCutPath
10
79.625
20
97
11
79.625
21
100
0
LINE
8
back_outsideCutPath
10
79.625
20
100
11
102.875
21
100
0
LINE
8
back_outsideCutPath
10
102.875
20
100
11
102.875
21
97
0
LINE
8
back_outsideCutPath
10
102.875
20
97
11
126.125
21
97
0
LINE
8
back_outsideCutPath
10
126.125
20
97
11
136
21
97
0
LINE
8
back_outsideCutPath
10
136
20
97
11
136
21
130.875
0
LINE
8
back_outsideCutPath
10
136
20
130.875
11
133
21
130.875
0
LINE
8
back_outsideCutPath
10
133
20
130.875
11
133
21
154.125
0
LINE
8
back_outsideCutPath
10
133
20
154.125
11
136
21
154.125
0
LINE
8
back_outsideCutPath
10
136
20
154.125
11
136
21
177.375
0
LINE
8
back_outsideCutPath
10
136
20
177.375
11
136
21
188
0
LINE
8
back_outsideCutPath
10
136
20
188
11
102.875
21
188
0
LINE
8
back_outsideCutPath
10
102.875
20
188
11
102.875
21
185
0
LINE
8
back_outsideCutPath
10
102.875
20
185
11
79.625
21
185
0
LINE
8
back_outsideCutPath
10
79.625
20
185
11
79.625
21
188
0
LINE
8
back_outsideCutPath
10
79.625
20
188
11
56.375
21
188
0
LINE
8
back_outsideCutPath
10
56.375
20
188
11
56.375
21
185
0
LINE
8
back_outsideCutPath
10
56.375
20
185
11
33.125
21
185
0
LINE
8
back_outsideCutPath
10
33.125
20
185
11
33.125
21
188
0
LINE
8
back_outsideCutPath
10
33.125
20
188
11
9.875
21
188
0
LINE
8
back_outsideCutPath
10
9.875
20
188
11
0
21
188
0
LINE
8
back_labelLayer
10
50.6086914
20
136.9281277
11
50.5020508
21
136.9281277
0
LINE
8
back_labelLayer
10
50.5020508
20
136.9281277
11
50.1910156
21
135.6751004
0
LINE
8
back_labelLayer
10
50.1910156
20
135.6751004
11
49.1334961
21
135.6751004
0
LINE
8
back_labelLayer
10
49.1334961
20
135.6751004
11
49.1334961
21
149.5028348
0
LINE
8
back_labelLayer
10
49.1334961
20
149.5028348
11
50.6086914
21
149.5028348
0
LINE
8
back_labelLayer
10
50.6086914
20
149.5028348
11
50.6086914
21
146.1436551
0
LINE
8
back_labelLayer
10
50.5375977
20
144.1174832
11
50.6086914
21
144.1174832
0
ARC
8
back_labelLayer
10
53.7099773
20
141.0664147
40
4.5087076
50
74.2393364
51
90.562388
0
ARC
8
back_labelLayer
10
54.008108
20
142.1601203
40
3.3751571
50
38.5631293
51
74.0670415
0
ARC
8
back_labelLayer
10
53.2408826
20
141.563558
40
4.3469663
50
16.4709278
51
38.4075289
0
ARC
8
back_labelLayer
10
51.0306294
20
140.8704863
40
6.6631328
50
5.1338369
51
16.7973462
0
ARC
8
back_labelLayer
10
48.2403309
20
140.5740827
40
9.4688702
50
359.8779293
51
5.4093479
0
ARC
8
back_labelLayer
10
49.0599121
20
140.5028796
40
8.6494181
50
350.6562863
51
0.3380324
0
ARC
8
back_labelLayer
10
52.0752404
20
139.9900068
40
5.5908528
50
335.8305967
51
350.8254766
0
ARC
8
back_labelLayer
10
53.4016257
20
139.4175213
40
4.1463958
50
321.3161584
51
335.5436056
0
ARC
8
back_labelLayer
10
53.9087185
20
139.0043189
40
3.4922995
50
274.064005
51
321.4081021
0
ARC
8
back_labelLayer
10
53.6724857
20
140.5007119
40
5.0033503
50
269.9225531
51
275.5481477
0
ARC
8
back_labelLayer
10
53.6408455
20
139.9718869
40
4.47459
50
255.7755486
51
270.3185457
0
ARC
8
back_labelLayer
10
53.5131582
20
139.4045723
40
3.8933248
50
245.9801658
51
255.5455505
0
ARC
8
back_labelLayer
10
53.2658253
20
138.8293979
40
3.2672907
50
215.585016
51
245.8361692
0
ARC
8
back_labelLayer
10
19.852103
20
146.1176535
40
30.7565994
50
358.1123164
51
0.0484378
0
ARC
8
back_labelLayer
10
28.4116199
20
145.8302936
40
22.1922625
50
355.7238907
51
358.1258724
0
ARC
8
back_labelLayer
10
32.1351172
20
145.5749212
40
18.4601033
50
355.4717459
51
355.652587
0
ARC
8
back_labelLayer
10
53.3598663
20
142.1990152
40
3.3540248
50
95.1835127
51
145.1109032
0
ARC
8
back_labelLayer
10
53.6546724
20
140.5365822
40
5.038335
50
89.8743365
51
96.8145444
0
ARC
8
back_labelLayer
10
53.4215574
20
140.1943373
40
4.1454289
50
89.5731354
51
100.7324099
0
ARC
8
back_labelLayer
10
53.1146804
20
141.7447921
40
2.5649796
50
100.446942
51
119.6700764
0
ARC
8
back_labelLayer
10
52.8301133
20
142.276824
40
1.9619063
50
120.140294
51
142.4248967
0
ARC
8
back_labelLayer
10
53.3009075
20
141.9653784
40
2.525277
50
143.3382326
51
161.2559813
0
ARC
8
back_labelLayer
10
55.2696859
20
141.2663977
40
4.6143423
50
160.8926496
51
171.2334195
0
ARC
8
back_labelLayer
10
58.5563211
20
140.7361863
40
7.943424
50
171.0667766
51
177.8456726
0
ARC
8
back_labelLayer
10
61.9742022
20
140.5623511
40
11.3655138
50
177.6176592
51
180.0425582
0
ARC
8
back_labelLayer
10
60.3624773
20
140.51582
40
9.7538603
50
179.7762587
51
185.7075232
0
ARC
8
back_labelLayer
10
56.5168822
20
140.1195876
40
5.8879359
50
185.5924809
51
194.2050692
0
ARC
8
back_labelLayer
10
54.0534277
20
139.4802352
40
3.3429471
50
193.9430363
51
208.021844
0
ARC
8
back_labelLayer
10
53.0566869
20
138.9731624
40
2.2249245
50
208.5535999
51
217.5605842
0
ARC
8
back_labelLayer
10
52.9755024
20
138.9394003
40
2.1401081
50
218.1690396
51
253.8047167
0
ARC
8
back_labelLayer
10
53.3724513
20
140.163236
40
3.4263235
50
253.1382523
51
266.8483126
0
ARC
8
back_labelLayer
10
53.483765
20
141.4759949
40
4.7433769
50
266.3775792
51
270.0510137
0
ARC
8
back_labelLayer
10
53.5194569
20
139.673239
40
2.9407875
50
269.3868798
51
285.8630549
0
ARC
8
back_labelLayer
10
53.7379388
20
138.8836147
40
2.1215216
50
286.0162797
51
326.8497392
0
ARC
8
back_labelLayer
10
52.6834332
20
139.5821872
40
3.3864101
50
326.7104916
51
343.6661782
0
ARC
8
back_labelLayer
10
50.709472
20
140.1853671
40
5.4503868
50
343.4171242
51
353.6369336
0
ARC
8
back_labelLayer
10
47.7279716
20
140.5391442
40
8.452755
50
353.493483
51
0.2205563
0
ARC
8
back_labelLayer
10
47.4651721
20
140.606961
40
8.7155633
50
359.7680797
51
6.3095372
0
ARC
8
back_labelLayer
10
50.7481506
20
140.9837063
40
5.4110841
50
6.1648462
51
16.039652
0
ARC
8
back_labelLayer
10
52.8629855
20
141.6069494
40
3.2064079
50
15.7779322
51
32.0151469
0
ARC
8
back_labelLayer
10
53.5225645
20
141.9846782
40
2.4470718
50
32.7033541
51
35.5243258
0
ARC
8
back_labelLayer
10
53.7636634
20
142.1560453
40
2.1512764
50
35.5408343
51
79.8011221
0
ARC
8
back_labelLayer
10
53.47477
20
140.9279097
40
3.4118146
50
78.6781084
51
90.3749743
0
LINE
8
back_labelLayer
10
67.369043
20
135.6751004
11
66.2759766
21
135.6751004
0
LINE
8
back_labelLayer
10
66.2759766
20
135.6751004
11
65.9827148
21
137.0614285
0
LINE
8
back_labelLayer
10
65.9827148
20
137.0614285
11
65.9116211
21
137.0614285
0
LINE
8
back_labelLayer
10
64.2764648
20
141.4603543
11
65.9293945
21
141.5136746
0
LINE
8
back_labelLayer
10
65.9293945
20
141.5136746
11
65.9293945
21
142.1179715
0
LINE
8
back_labelLayer
10
61.1039063
20
143.6109402
11
60.6506836
21
144.7395535
0
LINE
8
back_labelLayer
10
67.369043
20
142.322366
11
67.369043
21
135.6751004
0
LINE
8
back_labelLayer
10
65.8938477
20
139.5852566
11
65.8938477
21
140.4650418
0
LINE
8
back_labelLayer
10
65.8938477
20
140.4650418
11
64.4186523
21
140.4028348
0
ARC
8
back_labelLayer
10
61.1118996
20
140.8510449
40
6.1154329
50
314.7445147
51
321.7071706
0
ARC
8
back_labelLayer
10
62.6143666
20
139.3244236
40
3.9734962
50
304.8485884
51
314.8530745
0
ARC
8
back_labelLayer
10
63.3361284
20
138.2970742
40
2.7179699
50
294.393257
51
304.7371326
0
ARC
8
back_labelLayer
10
63.0895484
20
138.9359803
40
3.4019062
50
281.2979417
51
293.7313737
0
ARC
8
back_labelLayer
10
62.7635797
20
140.5157912
40
5.0149742
50
272.933511
51
281.4139034
0
ARC
8
back_labelLayer
10
62.6555387
20
142.1359928
40
6.638629
50
269.9538829
51
273.1491246
0
ARC
8
back_labelLayer
10
62.6182151
20
140.0244265
40
4.5271735
50
258.6719671
51
270.404744
0
ARC
8
back_labelLayer
10
62.3037529
20
138.5201644
40
2.9904755
50
238.3273225
51
258.9183589
0
ARC
8
back_labelLayer
10
62.0870367
20
138.1247965
40
2.5403085
50
227.7689182
51
237.8050541
0
ARC
8
back_labelLayer
10
62.019265
20
138.0301867
40
2.4247416
50
192.0827735
51
227.4520777
0
ARC
8
back_labelLayer
10
63.269359
20
138.3383461
40
3.7118584
50
179.5457163
51
192.6949277
0
ARC
8
back_labelLayer
10
62.1080316
20
138.4727446
40
2.5525736
50
115.4904631
51
182.3568158
0
ARC
8
back_labelLayer
10
63.3863888
20
136.1279734
40
5.2212612
50
101.3568193
51
117.07986
0
ARC
8
back_labelLayer
10
64.4130262
20
131.3304078
40
10.1272424
50
92.4696231
51
101.7064955
0
ARC
8
back_labelLayer
10
64.7081444
20
127.0555969
40
14.4112242
50
91.7165174
51
92.909522
0
ARC
8
back_labelLayer
10
61.6923596
20
142.1406515
40
4.2370956
50
359.6933105
51
8.0035925
0
ARC
8
back_labelLayer
10
63.295158
20
142.3741465
40
2.6174112
50
7.8272736
51
20.6041803
0
ARC
8
back_labelLayer
10
64.2021637
20
142.7211218
40
1.6463286
50
20.4094147
51
41.4479414
0
ARC
8
back_labelLayer
10
64.3361756
20
142.7947838
40
1.4974939
50
42.7295585
51
71.038027
0
ARC
8
back_labelLayer
10
64.0206698
20
141.9369153
40
2.4114103
50
70.5716462
51
83.9928732
0
ARC
8
back_labelLayer
10
63.8699429
20
140.7125763
40
3.6448653
50
83.6506627
51
90.1753337
0
ARC
8
back_labelLayer
10
63.8963826
20
139.5546572
40
4.8029146
50
90.448472
51
103.7665599
0
ARC
8
back_labelLayer
10
64.461179
20
137.1728845
40
7.2506926
50
103.6226571
51
112.4320081
0
ARC
8
back_labelLayer
10
65.4293169
20
134.7284147
40
9.8796981
50
112.2122375
51
115.9641047
0
ARC
8
back_labelLayer
10
63.8789221
20
138.752825
40
6.80165
50
106.3568493
51
118.3349884
0
ARC
8
back_labelLayer
10
64.1687142
20
137.8576227
40
7.7422747
50
104.5162614
51
106.5489433
0
ARC
8
back_labelLayer
10
63.9561751
20
138.7431111
40
6.8317993
50
90.0714448
51
104.6521064
0
ARC
8
back_labelLayer
10
63.9829866
20
139.3445824
40
6.2304229
50
81.5679883
51
90.3249038
0
ARC
8
back_labelLayer
10
64.343221
20
141.6914112
40
3.856158
50
68.2273576
51
81.7494318
0
ARC
8
back_labelLayer
10
64.8449669
20
142.9398014
40
2.5107159
50
47.8683042
51
68.2934091
0
ARC
8
back_labelLayer
10
64.9264
20
143.1023985
40
2.3360123
50
19.2331047
51
46.6741128
0
ARC
8
back_labelLayer
10
63.5698307
20
142.5977535
40
3.7832184
50
6.3379091
51
19.6815187
0
ARC
8
back_labelLayer
10
61.5645081
20
142.342358
40
5.8045692
50
359.8026621
51
6.6583473
0
ARC
8
back_labelLayer
10
62.9732868
20
140.7763807
40
4.0616438
50
269.5792016
51
282.0413501
0
ARC
8
back_labelLayer
10
63.2695556
20
139.462255
40
2.7146702
50
281.7120866
51
306.4594046
0
ARC
8
back_labelLayer
10
63.4009125
20
139.2462266
40
2.4629689
50
306.9881326
51
313.855897
0
ARC
8
back_labelLayer
10
63.385296
20
139.2417364
40
2.4705927
50
314.1891977
51
347.4269843
0
ARC
8
back_labelLayer
10
62.1477097
20
139.5518697
40
3.7461598
50
346.9177631
51
0.2824518
0
ARC
8
back_labelLayer
10
61.1837263
20
139.5853105
40
4.7101214
50
359.817857
51
359.9993443
0
ARC
8
back_labelLayer
10
64.7695601
20
129.5767258
40
10.8317945
50
91.8564841
51
96.4478304
0
ARC
8
back_labelLayer
10
64.2810736
20
133.8037318
40
6.5766788
50
96.3545227
51
102.9953176
0
ARC
8
back_labelLayer
10
63.6180037
20
136.6209253
40
3.6825538
50
102.799569
51
113.2432982
0
ARC
8
back_labelLayer
10
63.0713863
20
137.9282328
40
2.265677
50
113.5887062
51
121.6804768
0
ARC
8
back_labelLayer
10
62.6915978
20
138.5066436
40
1.574117
50
120.9733991
51
172.4179869
0
ARC
8
back_labelLayer
10
63.4338923
20
138.3583739
40
2.330001
50
171.2121982
51
180.2058516
0
ARC
8
back_labelLayer
10
63.2120532
20
138.3325836
40
2.1082189
50
179.52659
51
192.778755
0
ARC
8
back_labelLayer
10
62.4988828
20
138.1597067
40
1.3745176
50
192.326432
51
222.0579824
0
ARC
8
back_labelLayer
10
62.4458269
20
138.1279753
40
1.3139236
50
222.5804694
51
229.2547148
0
ARC
8
back_labelLayer
10
62.6250913
20
138.3587703
40
1.6058519
50
229.7836771
51
254.2724559
0
ARC
8
back_labelLayer
10
62.8638394
20
139.1543715
40
2.4364241
50
253.9396628
51
266.4533862
0
ARC
8
back_labelLayer
10
62.9400395
20
140.0326941
40
3.3178494
50
266.0782909
51
270.0590177
0
LINE
8
back_labelLayer
10
76.9044922
20
145.0861355
11
76.4512695
21
143.8331082
0
LINE
8
back_labelLayer
10
76.7623047
20
137.3102566
11
76.7623047
21
136.003909
0
ARC
8
back_labelLayer
10
74.253631
20
141.01056
40
5.5133948
50
256.4243687
51
270.4889812
0
ARC
8
back_labelLayer
10
73.8130587
20
139.2910456
40
3.7385883
50
221.7976297
51
256.8020489
0
ARC
8
back_labelLayer
10
74.2397011
20
139.6062752
40
4.2670383
50
196.0166556
51
221.1349253
0
ARC
8
back_labelLayer
10
76.3839719
20
140.2616756
40
6.5090205
50
183.5913657
51
196.3539568
0
ARC
8
back_labelLayer
10
78.7861027
20
140.4732985
40
8.9198969
50
179.9388706
51
183.9815086
0
ARC
8
back_labelLayer
10
78.0056023
20
140.5352193
40
8.1395601
50
169.8978484
51
180.3688841
0
ARC
8
back_labelLayer
10
75.1720251
20
141.0593888
40
5.2580061
50
153.0875099
51
170.1051417
0
ARC
8
back_labelLayer
10
74.0969172
20
141.573105
40
4.0669109
50
138.6550191
51
152.6853568
0
ARC
8
back_labelLayer
10
73.8962551
20
141.719333
40
3.8197355
50
101.4912931
51
138.3133846
0
ARC
8
back_labelLayer
10
74.3569188
20
139.8020981
40
5.7907294
50
89.5891936
51
102.1787725
0
ARC
8
back_labelLayer
10
74.392341
20
138.9355363
40
6.657145
50
77.770251
51
89.9475295
0
ARC
8
back_labelLayer
10
74.2663692
20
138.2405265
40
7.3631066
50
74.6796729
51
77.9578819
0
ARC
8
back_labelLayer
10
74.9470004
20
140.7063026
40
4.8051244
50
70.0945241
51
74.7386787
0
ARC
8
back_labelLayer
10
75.5943652
20
142.4804012
40
2.916614
50
63.5034459
51
70.1861077
0
ARC
8
back_labelLayer
10
75.8917033
20
143.1044501
40
2.2254928
50
62.9295821
51
63.1865303
0
ARC
8
back_labelLayer
10
74.0278983
20
137.7343227
40
6.5626148
50
68.3294485
51
74.8831222
0
ARC
8
back_labelLayer
10
73.6816825
20
136.5066827
40
7.8380752
50
74.7801957
51
77.4497489
0
ARC
8
back_labelLayer
10
74.0451656
20
138.2128035
40
6.0937583
50
77.2999228
51
81.7344948
0
ARC
8
back_labelLayer
10
74.3103033
20
140.0602584
40
4.2273788
50
81.6910243
51
87.5079088
0
ARC
8
back_labelLayer
10
74.3614495
20
141.0161091
40
3.2702222
50
87.6749843
51
89.9747513
0
ARC
8
back_labelLayer
10
74.2897613
20
141.014947
40
3.2722011
50
88.7194098
51
112.5667646
0
ARC
8
back_labelLayer
10
74.0572484
20
141.7836934
40
2.4743897
50
114.4265668
51
161.6632876
0
ARC
8
back_labelLayer
10
76.3670265
20
140.8796215
40
4.9530546
50
160.1418441
51
175.1368088
0
ARC
8
back_labelLayer
10
79.5461467
20
140.5226312
40
8.15145
50
174.5309799
51
180.1549349
0
ARC
8
back_labelLayer
10
78.5389543
20
140.4636977
40
7.144323
50
179.704142
51
188.0743712
0
ARC
8
back_labelLayer
10
75.965656
20
140.0871962
40
4.5436663
50
187.931527
51
200.3885362
0
ARC
8
back_labelLayer
10
74.5742515
20
139.571753
40
3.059859
50
200.4183493
51
216.6392664
0
ARC
8
back_labelLayer
10
73.9909398
20
139.1547582
40
2.3429915
50
216.9695341
51
261.3103037
0
ARC
8
back_labelLayer
10
74.2483664
20
140.3549144
40
3.5690137
50
260.1359217
51
270.2692256
0
ARC
8
back_labelLayer
10
74.2364833
20
142.9612259
40
6.1753521
50
270.2658513
51
286.2891336
0
ARC
8
back_labelLayer
10
73.8610736
20
144.3612532
40
7.6245455
50
286.0460636
51
292.3654006
0
ARC
8
back_labelLayer
10
74.8608523
20
139.7445191
40
4.1961512
50
282.0344274
51
296.9454517
0
ARC
8
back_labelLayer
10
74.4293066
20
141.689326
40
6.1882153
50
272.5980359
51
282.1878497
0
ARC
8
back_labelLayer
10
74.3055497
20
143.5873653
40
8.0900008
50
269.965537
51
272.8642885
0
LINE
8
back_labelLayer
10
80.4591797
20
140.6605496
11
80.5302734
21
140.6605496
0
LINE
8
back_labelLayer
10
81.6944336
20
142.0824246
11
84.840332
21
145.4149441
0
LINE
8
back_labelLayer
10
84.840332
20
145.4149441
11
86.5910156
21
145.4149441
0
LINE
8
back_labelLayer
10
86.5910156
20
145.4149441
11
82.6453125
21
141.2648465
0
LINE
8
back_labelLayer
10
82.6453125
20
141.2648465
11
86.8665039
21
135.6751004
0
LINE
8
back_labelLayer
10
86.8665039
20
135.6751004
11
85.0802734
21
135.6751004
0
LINE
8
back_labelLayer
10
85.0802734
20
135.6751004
11
81.6411133
21
140.2784207
0
LINE
8
back_labelLayer
10
81.6411133
20
140.2784207
11
80.5302734
21
139.3186551
0
LINE
8
back_labelLayer
10
80.5302734
20
139.3186551
11
80.5302734
21
135.6751004
0
LINE
8
back_labelLayer
10
80.5302734
20
135.6751004
11
79.0728516
21
135.6751004
0
LINE
8
back_labelLayer
10
79.0728516
20
135.6751004
11
79.0728516
21
149.5028348
0
LINE
8
back_labelLayer
10
79.0728516
20
149.5028348
11
80.5302734
21
149.5028348
0
LINE
8
back_labelLayer
10
80.5302734
20
149.5028348
11
80.5302734
21
142.1712918
0
ARC
8
back_labelLayer
10
87.6584818
20
135.6148965
40
8.733268
50
142.3234248
51
144.7074947
0
ARC
8
back_labelLayer
10
92.3091345
20
132.0277209
40
14.606631
50
140.4331401
51
142.3365297
0
ARC
8
back_labelLayer
10
98.3702066
20
127.0383659
40
22.4571164
50
139.2799404
51
140.4703079
0
ARC
8
back_labelLayer
10
105.3773845
20
121.0126388
40
31.6988648
50
138.3417736
51
139.2877026
0
ARC
8
back_labelLayer
10
70.7003989
20
142.1896808
40
9.8298918
50
358.2738582
51
359.8928155
0
ARC
8
back_labelLayer
10
63.0501284
20
142.4028824
40
17.4831215
50
357.5042011
51
358.3306813
0
ARC
8
back_labelLayer
10
51.6049032
20
142.9084309
40
28.9395054
50
356.6324972
51
357.4909884
0
ARC
8
back_labelLayer
10
32.5704096
20
144.0186172
40
48.0063459
50
356.0329752
51
356.6442177
0
ARC
8
back_labelLayer
10
20.8711423
20
144.8063708
40
59.7320854
50
356.0200756
51
356.0555325
0
LINE
8
right_outsideCutPath
10
142
20
188
11
142
21
154.125
0
LINE
8
right_outsideCutPath
10
142
20
154.125
11
139
21
154.125
0
LINE
8
right_outsideCutPath
10
139
20
154.125
11
139
21
130.875
0
LINE
8
right_outsideCutPath
10
139
20
130.875
11
142
21
130.875
0
LINE
8
right_outsideCutPath
10
142
20
130.875
11
142
21
107.625
0
LINE
8
right_outsideCutPath
10
142
20
107.625
11
142
21
97
0
LINE
8
right_outsideCutPath
10
142
20
97
11
158.875
21
97
0
LINE
8
right_outsideCutPath
10
158.875
20
97
11
158.875
21
100
0
LINE
8
right_outsideCutPath
10
158.875
20
100
11
182.125
21
100
0
LINE
8
right_outsideCutPath
10
182.125
20
100
11
182.125
21
97
0
LINE
8
right_outsideCutPath
10
182.125
20
97
11
205.375
21
97
0
LINE
8
right_outsideCutPath
10
205.375
20
97
11
205.375
21
100
0
LINE
8
right_outsideCutPath
10
205.375
20
100
11
228.625
21
100
0
LINE
8
right_outsideCutPath
10
228.625
20
100
11
228.625
21
97
0
LINE
8
right_outsideCutPath
10
228.625
20
97
11
251.875
21
97
0
LINE
8
right_outsideCutPath
10
251.875
20
97
11
251.875
21
100
0
LINE
8
right_outsideCutPath
10
251.875
20
100
11
275.125
21
100
0
LINE
8
right_outsideCutPath
10
275.125
20
100
11
275.125
21
97
0
LINE
8
right_outsideCutPath
10
275.125
20
97
11
292
21
97
0
LINE
8
right_outsideCutPath
10
292
20
97
11
292
21
130.875
0
LINE
8
right_outsideCutPath
10
292
20
130.875
11
295
21
130.875
0
LINE
8
right_outsideCutPath
10
295
20
130.875
11
295
21
154.125
0
LINE
8
right_outsideCutPath
10
295
20
154.125
11
292
21
154.125
0
LINE
8
right_outsideCutPath
10
292
20
154.125
11
292
21
177.375
0
LINE
8
right_outsideCutPath
10
292
20
177.375
11
292
21
188
0
LINE
8
right_outsideCutPath
10
292
20
188
11
275.125
21
188
0
LINE
8
right_outsideCutPath
10
275.125
20
188
11
275.125
21
185
0
LINE
8
right_outsideCutPath
10
275.125
20
185
11
251.875
21
185
0
LINE
8
right_outsideCutPath
10
251.875
20
185
11
251.875
21
188
0
LINE
8
right_outsideCutPath
10
251.875
20
188
11
228.625
21
188
0
LINE
8
right_outsideCutPath
10
228.625
20
188
11
228.625
21
185
0
LINE
8
right_outsideCutPath
10
228.625
20
185
11
205.375
21
185
0
LINE
8
right_outsideCutPath
10
205.375
20
185
11
205.375
21
188
0
LINE
8
right_outsideCutPath
10
205.375
20
188
11
182.125
21
188
0
LINE
8
right_outsideCutPath
10
182.125
20
188
11
182.125
21
185
0
LINE
8
right_outsideCutPath
10
182.125
20
185
11
158.875
21
185
0
LINE
8
right_outsideCutPath
10
158.875
20
185
11
158.875
21
188
0
LINE
8
right_outsideCutPath
10
158.875
20
188
11
142
21
188
0
LINE
8
right_labelLayer
10
203.7810059
20
147.5832568
11
203.5766113
21
146.2147021
0
LINE
8
right_labelLayer
10
199.6486816
20
142.9977099
11
199.6486816
21
137.7723193
0
LINE
8
right_labelLayer
10
199.6486816
20
137.7723193
11
198.1734863
21
137.7723193
0
LINE
8
right_labelLayer
10
198.1734863
20
137.7723193
11
198.1734863
21
147.512163
0
LINE
8
right_labelLayer
10
198.1734863
20
147.512163
11
199.3909668
21
147.512163
0
LINE
8
right_labelLayer
10
199.3909668
20
147.512163
11
199.5598145
21
145.7081591
0
LINE
8
right_labelLayer
10
199.5598145
20
145.7081591
11
199.6309082
21
145.7081591
0
ARC
8
right_labelLayer
10
202.6319874
20
140.9175425
40
6.7723718
50
84.9922778
51
90.1281027
0
ARC
8
right_labelLayer
10
202.7946231
20
142.7396932
40
4.9429809
50
78.4892255
51
85.0265807
0
ARC
8
right_labelLayer
10
202.1633455
20
139.8684886
40
6.5016725
50
77.4454177
51
81.6360131
0
ARC
8
right_labelLayer
10
202.4466228
20
141.8210551
40
4.5286694
50
81.5884628
51
87.1916365
0
ARC
8
right_labelLayer
10
202.5081464
20
142.8878898
40
3.4601138
50
87.3436404
51
89.9659103
0
ARC
8
right_labelLayer
10
202.4938565
20
143.7919788
40
2.5560764
50
89.6335356
51
137.088085
0
ARC
8
right_labelLayer
10
203.1210797
20
143.0866312
40
3.4968542
50
135.6208482
51
138.8377711
0
ARC
8
right_labelLayer
10
203.0292437
20
143.1762766
40
3.3687189
50
138.9575709
51
174.5422288
0
ARC
8
right_labelLayer
10
204.1263858
20
143.004607
40
4.4777095
50
173.6907678
51
180.0882544
0
ARC
8
right_labelLayer
10
203.9712344
20
143.2628408
40
4.9817681
50
139.4139146
51
150.603305
0
ARC
8
right_labelLayer
10
203.0780021
20
144.0282512
40
3.8054531
50
124.2321249
51
139.4161321
0
ARC
8
right_labelLayer
10
202.6004043
20
144.7491854
40
2.9407579
50
89.6796642
51
124.4405587
0
LINE
8
right_labelLayer
10
207.0779785
20
147.512163
11
207.0779785
21
137.7723193
0
LINE
8
right_labelLayer
10
207.0779785
20
137.7723193
11
205.6027832
21
137.7723193
0
LINE
8
right_labelLayer
10
205.6027832
20
137.7723193
11
205.6027832
21
147.512163
0
LINE
8
right_labelLayer
10
205.6027832
20
147.512163
11
207.0779785
21
147.512163
0
ARC
8
right_labelLayer
10
207.1130131
20
150.161633
40
1.6346752
50
170.8451255
51
180.3545205
0
ARC
8
right_labelLayer
10
206.5010613
20
150.2639564
40
1.0142452
50
155.9678158
51
171.0516682
0
ARC
8
right_labelLayer
10
206.2046682
20
150.3954499
40
0.689994
50
133.7880737
51
155.9170943
0
ARC
8
right_labelLayer
10
206.3140975
20
150.2744693
40
0.8530678
50
92.6446273
51
133.4710411
0
ARC
8
right_labelLayer
10
206.3486603
20
150.0030108
40
1.1260468
50
89.9691015
51
93.7641379
0
ARC
8
right_labelLayer
10
206.3627362
20
150.2599941
40
0.8691678
50
46.37087
51
90.8878899
0
ARC
8
right_labelLayer
10
206.4492377
20
150.3492973
40
0.7448439
50
17.7252266
51
46.4472936
0
ARC
8
right_labelLayer
10
206.0458532
20
150.2103877
40
1.1714087
50
4.9428117
51
18.1900806
0
ARC
8
right_labelLayer
10
205.5326581
20
150.15491
40
1.6875114
50
359.8848477
51
5.3181226
0
ARC
8
right_labelLayer
10
205.6938892
20
150.1411537
40
1.526312
50
349.8344926
51
0.389083
0
ARC
8
right_labelLayer
10
206.2495563
20
150.0374957
40
0.9610811
50
332.6321839
51
350.0705623
0
ARC
8
right_labelLayer
10
206.4658325
20
149.9306985
40
0.7199317
50
313.615363
51
332.2677943
0
ARC
8
right_labelLayer
10
206.3616013
20
150.0256054
40
0.8606011
50
269.1788384
51
314.2807412
0
ARC
8
right_labelLayer
10
206.3394895
20
150.1021078
40
0.9370661
50
250.4999779
51
270.5978777
0
ARC
8
right_labelLayer
10
206.3111335
20
149.9960721
40
0.8276924
50
225.1301229
51
249.9000805
0
ARC
8
right_labelLayer
10
206.2667315
20
149.947023
40
0.7616117
50
197.7934042
51
224.8942094
0
ARC
8
right_labelLayer
10
206.6822932
20
150.0894311
40
1.2008434
50
184.99254
51
198.2040381
0
ARC
8
right_labelLayer
10
207.2201177
20
150.1478894
40
1.7417524
50
179.88062
51
185.3685968
0
LINE
8
right_labelLayer
10
214.8094238
20
147.512163
11
218.1774902
21
147.512163
0
LINE
8
right_labelLayer
10
218.1774902
20
147.512163
11
218.1774902
21
146.5790575
0
LINE
8
right_labelLayer
10
218.1774902
20
146.5790575
11
216.3734863
21
146.3657763
0
LINE
8
right_labelLayer
10
213.0498535
20
139.3186083
11
214.773877
21
139.3186083
0
LINE
8
right_labelLayer
10
214.3028809
20
137.9944872
11
212.5344238
21
137.9944872
0
ARC
8
right_labelLayer
10
214.4935555
20
144.8780227
40
2.397405
50
29.4584958
51
38.3576468
0
ARC
8
right_labelLayer
10
213.5139049
20
144.3187834
40
3.5254323
50
23.1845834
51
29.542215
0
ARC
8
right_labelLayer
10
212.5791753
20
143.9042645
40
4.5478869
50
21.2506732
51
23.3489271
0
ARC
8
right_labelLayer
10
214.1680184
20
144.5361578
40
2.8380803
50
6.8505113
51
20.9871701
0
ARC
8
right_labelLayer
10
213.3687088
20
144.4277845
40
3.6446307
50
359.8710968
51
7.043223
0
ARC
8
right_labelLayer
10
213.6316982
20
144.3844206
40
3.3818147
50
342.5649812
51
0.5957759
0
ARC
8
right_labelLayer
10
214.2554064
20
144.2121917
40
2.7352503
50
310.6097711
51
342.092371
0
ARC
8
right_labelLayer
10
213.9056522
20
144.6190199
40
3.2717546
50
284.9315844
51
310.6222668
0
ARC
8
right_labelLayer
10
213.4679791
20
146.1526835
40
4.866485
50
272.5334798
51
285.2579794
0
ARC
8
right_labelLayer
10
213.3554508
20
147.6897755
40
6.4072031
50
269.9691588
51
272.9311871
0
ARC
8
right_labelLayer
10
213.3414814
20
146.0235964
40
4.741035
50
263.483664
51
270.1271414
0
ARC
8
right_labelLayer
10
213.2642771
20
145.2902374
40
4.0036575
50
259.4964395
51
263.3903462
0
ARC
8
right_labelLayer
10
213.7422091
20
139.0229676
40
2.6250533
50
117.3935186
51
128.4095348
0
ARC
8
right_labelLayer
10
213.066418
20
139.8613364
40
1.5482859
50
128.0882119
51
147.1400274
0
ARC
8
right_labelLayer
10
212.7023404
20
140.1056613
40
1.10992
50
147.5369333
51
180.2592317
0
ARC
8
right_labelLayer
10
212.3569528
20
140.0911912
40
0.7645795
50
179.2919408
51
198.3580319
0
ARC
8
right_labelLayer
10
212.2137968
20
140.0535683
40
0.616931
50
199.2291534
51
239.5691004
0
ARC
8
right_labelLayer
10
212.3324925
20
140.2175881
40
0.8187015
50
238.2205017
51
239.8462312
0
ARC
8
right_labelLayer
10
212.427184
20
140.4123707
40
1.0348153
50
240.7302577
51
254.5026488
0
ARC
8
right_labelLayer
10
212.7096088
20
141.385594
40
2.0481529
50
254.1636724
51
262.2123637
0
ARC
8
right_labelLayer
10
212.9333304
20
142.9482123
40
3.6266875
50
262.0556327
51
267.2083166
0
ARC
8
right_labelLayer
10
213.0413954
20
144.9303557
40
5.6117536
50
267.091955
51
270.0863572
0
ARC
8
right_labelLayer
10
214.8061253
20
133.2801006
40
6.0385938
50
81.5744298
51
90.3059825
0
ARC
8
right_labelLayer
10
215.1373544
20
135.4403193
40
3.8531731
50
68.3671362
51
81.7399176
0
ARC
8
right_labelLayer
10
215.5699784
20
136.5459436
40
2.6659387
50
52.1879374
51
68.2501183
0
ARC
8
right_labelLayer
10
215.872688
20
136.9538234
40
2.1581475
50
8.6201328
51
51.8982423
0
ARC
8
right_labelLayer
10
214.8117448
20
136.7293365
40
3.2413639
50
359.7430405
51
9.7326512
0
ARC
8
right_labelLayer
10
214.8592516
20
136.6746536
40
3.1940768
50
340.5268751
51
0.7201661
0
ARC
8
right_labelLayer
10
215.3285358
20
136.557808
40
2.7130792
50
302.9903745
51
339.5494494
0
ARC
8
right_labelLayer
10
214.8351937
20
137.1848647
40
3.5084008
50
303.1873225
51
304.1722601
0
ARC
8
right_labelLayer
10
214.3767909
20
137.9787158
40
4.4239756
50
286.2542201
51
302.5280137
0
ARC
8
right_labelLayer
10
213.5412748
20
140.7346409
40
7.3036696
50
276.4939956
51
286.4953479
0
ARC
8
right_labelLayer
10
213.0199707
20
145.0924663
40
11.6925199
50
269.7545102
51
276.6169572
0
ARC
8
right_labelLayer
10
212.9309387
20
141.6650832
40
8.2651213
50
262.5634758
51
270.2699032
0
ARC
8
right_labelLayer
10
212.5261281
20
138.6646458
40
5.2375435
50
251.2102011
51
262.7064091
0
ARC
8
right_labelLayer
10
211.9426613
20
136.9520813
40
3.4283143
50
235.9668027
51
251.2228985
0
ARC
8
right_labelLayer
10
211.3242379
20
136.0698337
40
2.3511435
50
208.9036361
51
236.4231348
0
ARC
8
right_labelLayer
10
211.3810115
20
136.0460339
40
2.3898294
50
182.2079981
51
207.7461485
0
ARC
8
right_labelLayer
10
212.1035724
20
136.1182175
40
3.1149496
50
179.9784421
51
183.0227188
0
ARC
8
right_labelLayer
10
211.2439207
20
136.158963
40
2.2556448
50
138.3916074
51
181.0052598
0
ARC
8
right_labelLayer
10
211.4821207
20
135.9448919
40
2.5758989
50
113.8121437
51
138.3496176
0
ARC
8
right_labelLayer
10
211.9339508
20
134.969206
40
3.6510021
50
102.2870549
51
114.1172986
0
ARC
8
right_labelLayer
10
211.7919781
20
139.9297471
40
1.5310592
50
216.5861448
51
245.4968858
0
ARC
8
right_labelLayer
10
212.010489
20
140.1152073
40
1.817151
50
215.4647197
51
217.1750865
0
ARC
8
right_labelLayer
10
211.6460819
20
139.8520075
40
1.3676454
50
182.1767158
51
215.3415709
0
ARC
8
right_labelLayer
10
211.9711377
20
139.8868799
40
1.6939407
50
179.9838197
51
182.9378163
0
ARC
8
right_labelLayer
10
211.9641047
20
139.9016185
40
1.6869677
50
161.7225705
51
180.4843342
0
ARC
8
right_labelLayer
10
211.7786296
20
139.952229
40
1.4950119
50
144.4963761
51
161.3350604
0
ARC
8
right_labelLayer
10
212.2730564
20
139.5837382
40
2.1115559
50
132.725912
51
144.1479671
0
ARC
8
right_labelLayer
10
213.0654843
20
138.7375194
40
3.2708604
50
125.2212566
51
132.8655413
0
ARC
8
right_labelLayer
10
213.8622117
20
137.6311603
40
4.6341981
50
121.2352911
51
125.3794487
0
ARC
8
right_labelLayer
10
212.449854
20
143.9824514
40
2.5861368
50
215.1640847
51
247.4747854
0
ARC
8
right_labelLayer
10
212.9325927
20
144.3720426
40
3.2054075
50
212.4714061
51
215.8875705
0
ARC
8
right_labelLayer
10
212.805653
20
144.2812255
40
3.0495676
50
183.0160758
51
212.3123155
0
ARC
8
right_labelLayer
10
213.4748502
20
144.3558152
40
3.7219697
50
179.9759453
51
183.6206977
0
ARC
8
right_labelLayer
10
214.0148172
20
144.393376
40
4.2620883
50
166.8195731
51
180.483933
0
ARC
8
right_labelLayer
10
212.600914
20
144.7503561
40
2.804147
50
132.3287781
51
167.3340795
0
ARC
8
right_labelLayer
10
212.7900756
20
144.4784516
40
3.132841
50
106.2189062
51
131.5377588
0
ARC
8
right_labelLayer
10
213.268689
20
142.9287383
40
4.7546337
50
93.6329811
51
106.5408742
0
ARC
8
right_labelLayer
10
213.4249327
20
141.1746047
40
6.5152963
50
89.9380043
51
94.0267729
0
ARC
8
right_labelLayer
10
213.4502339
20
142.0354144
40
5.6545124
50
82.5852137
51
90.1849383
0
ARC
8
right_labelLayer
10
213.6230117
20
143.3722309
40
4.3065776
50
74.0088796
51
82.5694458
0
ARC
8
right_labelLayer
10
211.8919477
20
136.1170128
40
1.4815867
50
179.2207295
51
200.9355586
0
ARC
8
right_labelLayer
10
211.7157612
20
136.0762177
40
1.3026917
50
202.0287097
51
236.1457409
0
ARC
8
right_labelLayer
10
211.9813217
20
136.4134112
40
1.7309644
50
235.0635504
51
238.5041427
0
ARC
8
right_labelLayer
10
212.2900028
20
136.9647655
40
2.3624892
50
239.1066359
51
254.4862837
0
ARC
8
right_labelLayer
10
212.7015935
20
138.3839212
40
3.8400655
50
254.232414
51
263.4937331
0
ARC
8
right_labelLayer
10
212.9601348
20
140.5737455
40
6.0450883
50
263.4108662
51
270.1457317
0
ARC
8
right_labelLayer
10
212.9875186
20
141.8847428
40
7.356076
50
269.9064697
51
270.0009962
0
ARC
8
right_labelLayer
10
213.0230027
20
144.4455629
40
9.916959
50
269.7957269
51
275.3991289
0
ARC
8
right_labelLayer
10
213.3941642
20
140.6352618
40
6.0886489
50
275.2956969
51
283.3516214
0
ARC
8
right_labelLayer
10
213.9988663
20
138.1446226
40
3.5257118
50
283.1370563
51
295.8572885
0
ARC
8
right_labelLayer
10
214.446957
20
137.1663879
40
2.4501003
50
296.4047251
51
301.8009461
0
ARC
8
right_labelLayer
10
214.622607
20
136.9242894
40
2.1518919
50
301.2230626
51
318.6238101
0
ARC
8
right_labelLayer
10
215.0188321
20
136.5582806
40
1.6126886
50
319.0765491
51
1.1407086
0
ARC
8
right_labelLayer
10
214.635364
20
136.6061979
40
1.9958998
50
359.5460785
51
10.9904469
0
ARC
8
right_labelLayer
10
215.406315
20
136.7630079
40
1.2092135
50
10.6608627
51
30.9362169
0
ARC
8
right_labelLayer
10
215.6507555
20
136.8986657
40
0.9298543
50
31.5094965
51
58.0778216
0
ARC
8
right_labelLayer
10
215.4216529
20
136.4884492
40
1.3993546
50
58.9972362
51
73.858641
0
ARC
8
right_labelLayer
10
214.9585818
20
134.972489
40
2.9843827
50
73.4100247
51
81.5906725
0
ARC
8
right_labelLayer
10
214.5662385
20
132.4334844
40
5.5534927
50
81.4172354
51
86.575682
0
ARC
8
right_labelLayer
10
214.3258032
20
128.6080436
40
9.3864717
50
86.5054105
51
90.1399202
0
ARC
8
right_labelLayer
10
212.5133254
20
134.603517
40
3.3910359
50
89.6435127
51
100.0209348
0
ARC
8
right_labelLayer
10
212.3001925
20
135.7629343
40
2.2122346
50
99.8102812
51
116.8229445
0
ARC
8
right_labelLayer
10
212.0925817
20
136.2007604
40
1.7278786
50
117.2304642
51
130.5023105
0
ARC
8
right_labelLayer
10
211.985981
20
136.3377679
40
1.5544863
50
130.794465
51
169.0413436
0
ARC
8
right_labelLayer
10
212.7709533
20
136.152903
40
2.3605077
50
168.2580404
51
180.3820554
0
ARC
8
right_labelLayer
10
214.0897617
20
144.3709001
40
2.8795432
50
179.5617594
51
191.6529073
0
ARC
8
right_labelLayer
10
213.0885766
20
144.1545895
40
1.8553275
50
191.3554991
51
213.3660459
0
ARC
8
right_labelLayer
10
212.8481398
20
144.0157575
40
1.5782493
50
213.9573683
51
227.797167
0
ARC
8
right_labelLayer
10
213.0573273
20
144.269468
40
1.9067766
50
228.2620732
51
254.7341286
0
ARC
8
right_labelLayer
10
213.3245733
20
145.1855974
40
2.8609935
50
254.401673
51
267.434852
0
ARC
8
right_labelLayer
10
213.3942905
20
146.1204782
40
3.7981596
50
267.0153845
51
270.0323584
0
ARC
8
right_labelLayer
10
213.4398661
20
145.5358181
40
3.2137923
50
269.2256934
51
284.3773059
0
ARC
8
right_labelLayer
10
213.8779005
20
144.0096973
40
1.6273331
50
282.7796745
51
346.4828525
0
ARC
8
right_labelLayer
10
212.5682939
20
144.3806518
40
2.9878678
50
345.4362306
51
0.7466081
0
ARC
8
right_labelLayer
10
212.384203
20
144.4649454
40
3.1720295
50
359.1806332
51
15.0431569
0
ARC
8
right_labelLayer
10
213.8215079
20
144.8842217
40
1.6754613
50
13.9535582
51
77.6673823
0
ARC
8
right_labelLayer
10
213.4091324
20
143.4064465
40
3.2083993
50
76.1094907
51
90.7028567
0
ARC
8
right_labelLayer
10
213.3474067
20
143.5192967
40
3.0953886
50
89.5859514
51
101.3333783
0
ARC
8
right_labelLayer
10
213.1262006
20
144.5743645
40
2.017446
50
101.0620558
51
121.9739168
0
ARC
8
right_labelLayer
10
212.9707395
20
144.8540289
40
1.6979653
50
122.5211009
51
134.9966896
0
ARC
8
right_labelLayer
10
213.0347489
20
144.8156779
40
1.7704371
50
135.5839946
51
163.0015707
0
ARC
8
right_labelLayer
10
213.9696711
20
144.5092436
40
2.7541704
50
162.5911855
51
175.7343027
0
ARC
8
right_labelLayer
10
215.0910467
20
144.3987742
40
3.8807485
50
175.339308
51
180.0863625
0
LINE
8
right_labelLayer
10
228.3172363
20
137.7723193
11
226.842041
21
137.7723193
0
LINE
8
right_labelLayer
10
226.842041
20
137.7723193
11
226.842041
21
144.0730028
0
LINE
8
right_labelLayer
10
221.6521973
20
142.8644091
11
221.6521973
21
137.7723193
0
LINE
8
right_labelLayer
10
221.6521973
20
137.7723193
11
220.177002
21
137.7723193
0
LINE
8
right_labelLayer
10
220.177002
20
137.7723193
11
220.177002
21
151.6000536
0
LINE
8
right_labelLayer
10
220.177002
20
151.6000536
11
221.6521973
21
151.6000536
0
LINE
8
right_labelLayer
10
221.6521973
20
151.6000536
11
221.6521973
21
147.4144091
0
LINE
8
right_labelLayer
10
221.5811035
20
146.1613818
11
221.6699707
21
146.1613818
0
LINE
8
right_labelLayer
10
228.3172363
20
144.1263232
11
228.3172363
21
137.7723193
0
ARC
8
right_labelLayer
10
222.6721233
20
144.0969186
40
4.1699863
50
359.6713949
51
8.6877502
0
ARC
8
right_labelLayer
10
224.2176307
20
144.3420284
40
2.605203
50
8.4931273
51
22.6580028
0
ARC
8
right_labelLayer
10
225.0028598
20
144.668346
40
1.7548707
50
22.7024361
51
42.3419759
0
ARC
8
right_labelLayer
10
225.091122
20
144.7080489
40
1.6631632
50
43.3790944
51
71.5386049
0
ARC
8
right_labelLayer
10
224.7610591
20
143.7857675
40
2.6425848
50
71.0828027
51
84.3691002
0
ARC
8
right_labelLayer
10
224.6128973
20
142.5260281
40
3.9108556
50
84.0198069
51
90.1510378
0
ARC
8
right_labelLayer
10
224.5707942
20
141.9728266
40
4.4641566
50
89.5919359
51
100.3595016
0
ARC
8
right_labelLayer
10
224.2546921
20
143.633992
40
2.7732543
50
100.1067852
51
118.0847358
0
ARC
8
right_labelLayer
10
223.9331907
20
144.2648566
40
2.0653603
50
118.4551172
51
139.6706057
0
ARC
8
right_labelLayer
10
224.2559608
20
144.0442387
40
2.4545369
50
140.6208325
51
160.5048835
0
ARC
8
right_labelLayer
10
225.9572853
20
143.4144127
40
4.2685927
50
160.1566845
51
171.5312956
0
ARC
8
right_labelLayer
10
228.7100689
20
142.9782643
40
7.0556403
50
171.3202206
51
178.3406958
0
ARC
8
right_labelLayer
10
231.1729233
20
142.8682303
40
9.5207267
50
178.1079622
51
180.0229962
0
ARC
8
right_labelLayer
10
208.3820389
20
147.3985858
40
13.2701678
50
357.8673904
51
0.0683195
0
ARC
8
right_labelLayer
10
212.8900642
20
147.2265848
40
8.7588652
50
354.9828375
51
357.8943878
0
ARC
8
right_labelLayer
10
215.8672593
20
146.9673328
40
5.7704048
50
351.9712635
51
354.9618934
0
ARC
8
right_labelLayer
10
224.1687017
20
144.5983384
40
2.9473311
50
119.83159
51
147.9725846
0
ARC
8
right_labelLayer
10
224.5256134
20
144.0500501
40
3.6007019
50
116.6658371
51
120.4182993
0
ARC
8
right_labelLayer
10
224.5922304
20
143.875045
40
3.7870378
50
96.665253
51
116.37825
0
ARC
8
right_labelLayer
10
224.7358118
20
142.8844009
40
4.7877313
50
89.892731
51
96.9958906
0
ARC
8
right_labelLayer
10
224.7817234
20
141.6871561
40
5.9850819
50
80.6863007
51
90.3537092
0
ARC
8
right_labelLayer
10
225.154393
20
143.879145
40
3.7616997
50
65.6022936
51
80.8843961
0
ARC
8
right_labelLayer
10
225.601901
20
144.8870357
40
2.6589766
50
46.740102
51
65.4130643
0
ARC
8
right_labelLayer
10
225.632319
20
144.9830729
40
2.5685627
50
19.2204317
51
45.7660803
0
ARC
8
right_labelLayer
10
224.1512717
20
144.434036
40
4.1479145
50
6.4733698
51
19.6468104
0
ARC
8
right_labelLayer
10
221.9381916
20
144.1491986
40
6.3790859
50
359.7945363
51
6.7744018
0
LINE
8
right_labelLayer
10
235.8265137
20
138.9897997
11
235.8265137
21
137.8611864
0
LINE
8
right_labelLayer
10
231.454248
20
140.5716357
11
231.454248
21
146.3657763
0
LINE
8
right_labelLayer
10
231.454248
20
146.3657763
11
230.0590332
21
146.3657763
0
LINE
8
right_labelLayer
10
230.0590332
20
146.3657763
11
230.0590332
21
147.0767138
0
LINE
8
right_labelLayer
10
230.0590332
20
147.0767138
11
231.454248
21
147.6898974
0
LINE
8
right_labelLayer
10
231.454248
20
147.6898974
11
232.0763184
21
149.7693896
0
LINE
8
right_labelLayer
10
232.0763184
20
149.7693896
11
232.9294434
21
149.7693896
0
LINE
8
right_labelLayer
10
232.9294434
20
149.7693896
11
232.9294434
21
147.512163
0
LINE
8
right_labelLayer
10
232.9294434
20
147.512163
11
235.7554199
21
147.512163
0
LINE
8
right_labelLayer
10
235.7554199
20
147.512163
11
235.7554199
21
146.3657763
0
LINE
8
right_labelLayer
10
235.7554199
20
146.3657763
11
232.9294434
21
146.3657763
0
LINE
8
right_labelLayer
10
232.9294434
20
146.3657763
11
232.9294434
21
140.6338427
0
ARC
8
right_labelLayer
10
234.5036225
20
143.6568085
40
4.8447537
50
269.8803569
51
278.3028163
0
ARC
8
right_labelLayer
10
234.5497259
20
143.2800914
40
4.4653361
50
278.4154691
51
279.0080359
0
ARC
8
right_labelLayer
10
234.0061995
20
146.7523351
40
7.9798589
50
278.9589472
51
280.5104605
0
ARC
8
right_labelLayer
10
234.5242417
20
143.9727743
40
5.1524365
50
280.4846997
51
282.6268331
0
ARC
8
right_labelLayer
10
234.9785193
20
141.9545429
40
3.0837125
50
282.5877261
51
285.5794302
0
ARC
8
right_labelLayer
10
235.2083073
20
141.1097909
40
2.2082893
50
285.7229912
51
286.257107
0
ARC
8
right_labelLayer
10
235.2062975
20
139.1729791
40
1.4510231
50
287.988876
51
295.3048083
0
ARC
8
right_labelLayer
10
234.8563339
20
140.2317795
40
2.5661524
50
283.3069365
51
288.1198113
0
ARC
8
right_labelLayer
10
234.4866596
20
141.7737858
40
4.1518471
50
280.0069147
51
283.3735781
0
ARC
8
right_labelLayer
10
234.2389684
20
143.1180634
40
5.5187242
50
279.1864427
51
280.1141812
0
ARC
8
right_labelLayer
10
234.0874189
20
143.9800188
40
6.39383
50
275.5260071
51
279.2939459
0
ARC
8
right_labelLayer
10
234.2585188
20
142.1928652
40
4.598506
50
270.8932502
51
275.5483573
0
ARC
8
right_labelLayer
10
234.280032
20
141.3748205
40
3.7802355
50
270.00292
51
270.7605137
0
ARC
8
right_labelLayer
10
234.2206959
20
141.447121
40
3.852996
50
253.7848035
51
270.8852545
0
ARC
8
right_labelLayer
10
233.7642186
20
139.8903578
40
2.2306948
50
190.381764
51
253.8772409
0
ARC
8
right_labelLayer
10
236.0908715
20
140.5194441
40
4.6369171
50
179.3550843
51
192.8477638
0
ARC
8
right_labelLayer
10
235.8999373
20
140.615264
40
2.970552
50
179.6416538
51
189.7505947
0
ARC
8
right_labelLayer
10
234.8512764
20
140.4282221
40
1.9053744
50
189.5479464
51
205.7873574
0
ARC
8
right_labelLayer
10
234.4203269
20
140.2294997
40
1.4309158
50
206.1294915
51
221.4083617
0
ARC
8
right_labelLayer
10
234.3719984
20
140.1928293
40
1.3704215
50
221.5949182
51
262.3505166
0
ARC
8
right_labelLayer
10
234.4869209
20
140.7838003
40
1.9717459
50
261.3266136
51
270.1913494
0
LINE
8
bottom_outsideCutPath
10
301
20
315
11
301
21
298.125
0
LINE
8
bottom_outsideCutPath
10
301
20
298.125
11
298
21
298.125
0
LINE
8
bottom_outsideCutPath
10
298
20
298.125
11
298
21
274.875
0
LINE
8
bottom_outsideCutPath
10
298
20
274.875
11
301
21
274.875
0
LINE
8
bottom_outsideCutPath
10
301
20
274.875
11
301
21
251.625
0
LINE
8
bottom_outsideCutPath
10
301
20
251.625
11
298
21
251.625
0
LINE
8
bottom_outsideCutPath
10
298
20
251.625
11
298
21
228.375
0
LINE
8
bottom_outsideCutPath
10
298
20
228.375
11
301
21
228.375
0
LINE
8
bottom_outsideCutPath
10
301
20
228.375
11
301
21
205.125
0
LINE
8
bottom_outsideCutPath
10
301
20
205.125
11
298
21
205.125
0
LINE
8
bottom_outsideCutPath
10
298
20
205.125
11
298
21
181.875
0
LINE
8
bottom_outsideCutPath
10
298
20
181.875
11
301
21
181.875
0
LINE
8
bottom_outsideCutPath
10
301
20
181.875
11
301
21
165
0
LINE
8
bottom_outsideCutPath
10
301
20
165
11
331.125
21
165
0
LINE
8
bottom_outsideCutPath
10
331.125
20
165
11
331.125
21
162
0
LINE
8
bottom_outsideCutPath
10
331.125
20
162
11
354.375
21
162
0
LINE
8
bottom_outsideCutPath
10
354.375
20
162
11
354.375
21
165
0
LINE
8
bottom_outsideCutPath
10
354.375
20
165
11
377.625
21
165
0
LINE
8
bottom_outsideCutPath
10
377.625
20
165
11
377.625
21
162
0
LINE
8
bottom_outsideCutPath
10
377.625
20
162
11
400.875
21
162
0
LINE
8
bottom_outsideCutPath
10
400.875
20
162
11
400.875
21
165
0
LINE
8
bottom_outsideCutPath
10
400.875
20
165
11
424.125
21
165
0
LINE
8
bottom_outsideCutPath
10
424.125
20
165
11
431
21
165
0
LINE
8
bottom_outsideCutPath
10
431
20
165
11
431
21
181.875
0
LINE
8
bottom_outsideCutPath
10
431
20
181.875
11
434
21
181.875
0
LINE
8
bottom_outsideCutPath
10
434
20
181.875
11
434
21
205.125
0
LINE
8
bottom_outsideCutPath
10
434
20
205.125
11
431
21
205.125
0
LINE
8
bottom_outsideCutPath
10
431
20
205.125
11
431
21
228.375
0
LINE
8
bottom_outsideCutPath
10
431
20
228.375
11
434
21
228.375
0
LINE
8
bottom_outsideCutPath
10
434
20
228.375
11
434
21
251.625
0
LINE
8
bottom_outsideCutPath
10
434
20
251.625
11
431
21
251.625
0
LINE
8
bottom_outsideCutPath
10
431
20
251.625
11
431
21
274.875
0
LINE
8
bottom_outsideCutPath
10
431
20
274.875
11
434
21
274.875
0
LINE
8
bottom_outsideCutPath
10
434
20
274.875
11
434
21
298.125
0
LINE
8
bottom_outsideCutPath
10
434
20
298.125
11
431
21
298.125
0
LINE
8
bottom_outsideCutPath
10
431
20
298.125
11
431
21
315
0
LINE
8
bottom_outsideCutPath
10
431
20
315
11
400.875
21
315
0
LINE
8
bottom_outsideCutPath
10
400.875
20
315
11
400.875
21
318
0
LINE
8
bottom_outsideCutPath
10
400.875
20
318
11
377.625
21
318
0
LINE
8
bottom_outsideCutPath
10
377.625
20
318
11
377.625
21
315
0
LINE
8
bottom_outsideCutPath
10
377.625
20
315
11
354.375
21
315
0
LINE
8
bottom_outsideCutPath
10
354.375
20
315
11
354.375
21
318
0
LINE
8
bottom_outsideCutPath
10
354.375
20
318
11
331.125
21
318
0
LINE
8
bottom_outsideCutPath
10
331.125
20
318
11
331.125
21
315
0
LINE
8
bottom_outsideCutPath
10
331.125
20
315
11
307.875
21
315
0
LINE
8
bottom_outsideCutPath
10
307.875
20
315
11
301
21
315
0
LINE
8
bottom_labelLayer
10
323.4600918
20
231.6729999
11
323.3007168
21
231.6729999
0
LINE
8
bottom_labelLayer
10
323.3007168
20
231.6729999
11
322.8358731
21
229.8003437
0
LINE
8
bottom_labelLayer
10
322.8358731
20
229.8003437
11
321.2554043
21
229.8003437
0
LINE
8
bottom_labelLayer
10
321.2554043
20
229.8003437
11
321.2554043
21
250.4659687
0
LINE
8
bottom_labelLayer
10
321.2554043
20
250.4659687
11
323.4600918
21
250.4659687
0
LINE
8
bottom_labelLayer
10
323.4600918
20
250.4659687
11
323.4600918
21
245.4456562
0
LINE
8
bottom_labelLayer
10
323.3538418
20
242.4175312
11
323.4600918
21
242.4175312
0
ARC
8
bottom_labelLayer
10
328.0949801
20
237.8576896
40
6.7382911
50
74.2393391
51
90.5623837
0
ARC
8
bottom_labelLayer
10
328.5405386
20
239.4922418
40
5.0441906
50
38.5631271
51
74.067041
0
ARC
8
bottom_labelLayer
10
327.3939141
20
238.600675
40
6.4965671
50
16.4709303
51
38.4075244
0
ARC
8
bottom_labelLayer
10
324.0906645
20
237.5648723
40
9.9581051
50
5.1338521
51
16.797342
0
ARC
8
bottom_labelLayer
10
319.9205584
20
237.1218976
40
14.1512843
50
359.8779376
51
5.409354
0
ARC
8
bottom_labelLayer
10
321.145442
20
237.0154851
40
12.9265936
50
350.6562846
51
0.3380377
0
ARC
8
bottom_labelLayer
10
325.6518575
20
236.2489943
40
8.3555599
50
335.8306005
51
350.825481
0
ARC
8
bottom_labelLayer
10
327.6341643
20
235.3934021
40
6.1967918
50
321.3161343
51
335.5436265
0
ARC
8
bottom_labelLayer
10
328.392
20
234.7758796
40
5.2192614
50
274.0640091
51
321.4081
0
ARC
8
bottom_labelLayer
10
328.0389484
20
237.0122097
40
7.4774979
50
269.9225593
51
275.5481817
0
ARC
8
bottom_labelLayer
10
327.9916628
20
236.2219073
40
6.687292
50
255.7755337
51
270.3185467
0
ARC
8
bottom_labelLayer
10
327.8008255
20
235.3740405
40
5.8185746
50
245.980159
51
255.545578
0
ARC
8
bottom_labelLayer
10
327.4311933
20
234.5144594
40
4.8829848
50
215.5850226
51
245.8361711
0
ARC
8
bottom_labelLayer
10
277.4942554
20
245.4067911
40
45.9658528
50
358.1123211
51
0.0484448
0
ARC
8
bottom_labelLayer
10
290.2872649
20
244.9772944
40
33.165639
50
355.7238564
51
358.1258974
0
ARC
8
bottom_labelLayer
10
295.8477387
20
244.5959429
40
27.5922306
50
355.4717751
51
355.6525932
0
ARC
8
bottom_labelLayer
10
327.5717379
20
239.5503699
40
5.0126088
50
95.1835135
51
145.1109007
0
ARC
8
bottom_labelLayer
10
328.0123271
20
237.0658407
40
7.5298335
50
89.8743364
51
96.8145312
0
ARC
8
bottom_labelLayer
10
327.6639355
20
236.5543799
40
6.1953544
50
89.573134
51
100.7324298
0
ARC
8
bottom_labelLayer
10
327.2053073
20
238.8715287
40
3.8333788
50
100.4469509
51
119.6700713
0
ARC
8
bottom_labelLayer
10
326.7800187
20
239.6666564
40
2.9320791
50
120.1402909
51
142.4248987
0
ARC
8
bottom_labelLayer
10
327.4836175
20
239.2012018
40
3.7740337
50
143.3382155
51
161.2559965
0
ARC
8
bottom_labelLayer
10
330.425966
20
238.1565707
40
6.8961518
50
160.892648
51
171.23343
0
ARC
8
bottom_labelLayer
10
335.3378522
20
237.3641686
40
11.8714744
50
171.0667855
51
177.8456907
0
ARC
8
bottom_labelLayer
10
340.4461687
20
237.1043553
40
16.9860817
50
177.6176571
51
180.0425192
0
ARC
8
bottom_labelLayer
10
338.0371971
20
237.0348285
40
14.5772164
50
179.7762697
51
185.7075265
0
ARC
8
bottom_labelLayer
10
332.289939
20
236.4426587
40
8.7995765
50
185.5924955
51
194.2050604
0
ARC
8
bottom_labelLayer
10
328.6082743
20
235.4871404
40
4.9960582
50
193.9430422
51
208.0218347
0
ARC
8
bottom_labelLayer
10
327.1186809
20
234.7293459
40
3.3252172
50
208.5536794
51
217.5605136
0
ARC
8
bottom_labelLayer
10
326.9973045
20
234.6788589
40
3.1984046
50
218.1690484
51
253.8047108
0
ARC
8
bottom_labelLayer
10
327.5905451
20
236.5078786
40
5.120651
50
253.1382355
51
266.8483184
0
ARC
8
bottom_labelLayer
10
327.7568976
20
238.4696927
40
7.088883
50
266.3775787
51
270.0510753
0
ARC
8
bottom_labelLayer
10
327.8102461
20
235.7755861
40
4.3950253
50
269.3868909
51
285.863057
0
ARC
8
bottom_labelLayer
10
328.1367688
20
234.5954866
40
3.1706265
50
286.0162843
51
326.8497344
0
ARC
8
bottom_labelLayer
10
326.5608065
20
235.6395052
40
5.0610066
50
326.710493
51
343.666186
0
ARC
8
bottom_labelLayer
10
323.6106781
20
236.540968
40
8.1456644
50
343.4171458
51
353.6369158
0
ARC
8
bottom_labelLayer
10
319.1548141
20
237.0696878
40
12.6327152
50
353.4934783
51
0.2205376
0
ARC
8
bottom_labelLayer
10
318.7620331
20
237.1710346
40
13.0255092
50
359.7680883
51
6.3095198
0
ARC
8
bottom_labelLayer
10
323.668499
20
237.7340808
40
8.0869105
50
6.1648602
51
16.0396467
0
ARC
8
bottom_labelLayer
10
326.8291372
20
238.6655209
40
4.7920045
50
15.7779432
51
32.0151231
0
ARC
8
bottom_labelLayer
10
327.8147325
20
239.2299352
40
3.6573536
50
32.7034233
51
35.5242475
0
ARC
8
bottom_labelLayer
10
328.1752151
20
239.4861513
40
3.2150942
50
35.5408369
51
79.801126
0
ARC
8
bottom_labelLayer
10
327.7434596
20
237.6506648
40
5.0990067
50
78.6781499
51
90.3749442
0
ARC
8
bottom_labelLayer
10
339.0995762
20
237.0149776
40
11.3881182
50
349.176191
51
0.3862587
0
ARC
8
bottom_labelLayer
10
342.9336903
20
236.2506398
40
7.4787443
50
330.2507023
51
349.4116451
0
ARC
8
bottom_labelLayer
10
344.1136364
20
235.6373496
40
6.1502199
50
318.1439704
51
329.7566225
0
ARC
8
bottom_labelLayer
10
344.3265977
20
235.4666823
40
5.8777407
50
278.8959153
51
317.9979102
0
ARC
8
bottom_labelLayer
10
343.7778732
20
238.0956711
40
8.5610336
50
269.7502798
51
279.80332
0
ARC
8
bottom_labelLayer
10
343.6888802
20
236.6144007
40
7.0798707
50
253.5436905
51
270.418241
0
ARC
8
bottom_labelLayer
10
343.4532084
20
235.7027593
40
6.1388964
50
238.8115656
51
253.2428249
0
ARC
8
bottom_labelLayer
10
343.3771443
20
235.5497932
40
5.9686653
50
207.7946982
51
238.6757945
0
ARC
8
bottom_labelLayer
10
344.4684904
20
236.2182012
40
7.2462468
50
205.6560288
51
208.4461662
0
ARC
8
bottom_labelLayer
10
345.3092146
20
236.568505
40
8.1558963
50
188.9102471
51
205.3171442
0
ARC
8
bottom_labelLayer
10
348.1423025
20
237.0483376
40
11.0291712
50
179.7744758
51
189.0932825
0
ARC
8
bottom_labelLayer
10
348.5602131
20
237.1692841
40
11.4472589
50
169.2442985
51
180.3880771
0
ARC
8
bottom_labelLayer
10
344.6728085
20
237.9376837
40
7.4848065
50
150.7111461
51
169.4695513
0
ARC
8
bottom_labelLayer
10
343.4318432
20
238.5749634
40
6.0909311
50
138.1759572
51
150.2287319
0
ARC
8
bottom_labelLayer
10
343.2254065
20
238.7333782
40
5.83149
50
99.1759341
51
137.9832714
0
ARC
8
bottom_labelLayer
10
343.7935709
20
236.0595337
40
8.562778
50
89.7326269
51
100.0759798
0
ARC
8
bottom_labelLayer
10
343.9071291
20
237.2142756
40
7.4083086
50
73.5222763
51
90.5692289
0
ARC
8
bottom_labelLayer
10
344.3415825
20
238.7927598
40
5.7715069
50
41.1445682
51
73.2133877
0
ARC
8
bottom_labelLayer
10
343.5122447
20
238.079956
40
6.8650442
50
13.501436
51
41.0703394
0
ARC
8
bottom_labelLayer
10
340.3081138
20
237.2414779
40
10.1766074
50
1.1277175
51
13.8800006
0
ARC
8
bottom_labelLayer
10
337.5475628
20
237.0935719
40
12.9398728
50
359.9919325
51
1.5419313
0
ARC
8
bottom_labelLayer
10
350.5619289
20
237.0344537
40
11.164484
50
179.7059564
51
187.9160794
0
ARC
8
bottom_labelLayer
10
346.4671445
20
236.4462411
40
7.027734
50
187.7639199
51
200.0976918
0
ARC
8
bottom_labelLayer
10
344.2113495
20
235.6197152
40
4.6252865
50
200.084602
51
216.9131628
0
ARC
8
bottom_labelLayer
10
343.3876079
20
235.0315252
40
3.6134803
50
217.3009604
51
261.7099049
0
ARC
8
bottom_labelLayer
10
343.7700146
20
236.856333
40
5.4755716
50
260.5033226
51
270.2476917
0
ARC
8
bottom_labelLayer
10
343.8430055
20
236.5015043
40
5.1209294
50
269.4481726
51
284.725559
0
ARC
8
bottom_labelLayer
10
344.2483992
20
234.9980259
40
3.5638005
50
284.566234
51
322.6333791
0
ARC
8
bottom_labelLayer
10
343.3005689
20
235.6827901
40
4.7327999
50
323.0089323
51
342.6390543
0
ARC
8
bottom_labelLayer
10
340.5895552
20
236.5688256
40
7.584784
50
342.3615852
51
353.7537485
0
ARC
8
bottom_labelLayer
10
336.5899611
20
237.0509249
40
11.6131714
50
353.5363
51
0.2014183
0
ARC
8
bottom_labelLayer
10
337.2027737
20
237.147897
40
11.0004301
50
359.7075566
51
7.8972827
0
ARC
8
bottom_labelLayer
10
341.2314363
20
237.725447
40
6.9306464
50
7.7439783
51
20.069033
0
ARC
8
bottom_labelLayer
10
343.4763522
20
238.5492479
40
4.5393544
50
20.0257137
51
37.4350375
0
ARC
8
bottom_labelLayer
10
344.2212091
20
239.0777859
40
3.6267789
50
37.9577672
51
80.4006152
0
ARC
8
bottom_labelLayer
10
343.797935
20
237.1891719
40
5.5604757
50
79.3453567
51
90.3174907
0
ARC
8
bottom_labelLayer
10
343.7195583
20
237.5028798
40
5.2468982
50
89.4805882
51
103.8805021
0
ARC
8
bottom_labelLayer
10
343.2786838
20
239.1817286
40
3.5114007
50
103.4685233
51
142.3118868
0
ARC
8
bottom_labelLayer
10
344.1357775
20
238.5789588
40
4.5584154
50
142.9025645
51
162.3749634
0
ARC
8
bottom_labelLayer
10
346.8364843
20
237.6789542
40
7.404964
50
162.06531
51
173.1674939
0
ARC
8
bottom_labelLayer
10
351.0476135
20
237.1418465
40
11.6501295
50
173.0086082
51
180.2463776
0
LINE
8
bottom_labelLayer
10
361.0460293
20
231.6198749
11
361.0460293
21
229.9331562
0
LINE
8
bottom_labelLayer
10
354.5116543
20
233.9839374
11
354.5116543
21
242.6433124
0
LINE
8
bottom_labelLayer
10
354.5116543
20
242.6433124
11
352.4264981
21
242.6433124
0
LINE
8
bottom_labelLayer
10
352.4264981
20
242.6433124
11
352.4264981
21
243.7058124
0
LINE
8
bottom_labelLayer
10
352.4264981
20
243.7058124
11
354.5116543
21
244.6222187
0
LINE
8
bottom_labelLayer
10
354.5116543
20
244.6222187
11
355.4413418
21
247.7300312
0
LINE
8
bottom_labelLayer
10
355.4413418
20
247.7300312
11
356.7163418
21
247.7300312
0
LINE
8
bottom_labelLayer
10
356.7163418
20
247.7300312
11
356.7163418
21
244.3565937
0
LINE
8
bottom_labelLayer
10
356.7163418
20
244.3565937
11
360.9397793
21
244.3565937
0
LINE
8
bottom_labelLayer
10
360.9397793
20
244.3565937
11
360.9397793
21
242.6433124
0
LINE
8
bottom_labelLayer
10
360.9397793
20
242.6433124
11
356.7163418
21
242.6433124
0
LINE
8
bottom_labelLayer
10
356.7163418
20
242.6433124
11
356.7163418
21
234.0769062
0
ARC
8
bottom_labelLayer
10
359.0689613
20
238.5947292
40
7.2404951
50
269.8803562
51
278.3028341
0
ARC
8
bottom_labelLayer
10
359.1377878
20
238.0322212
40
6.673957
50
278.4155027
51
279.0080262
0
ARC
8
bottom_labelLayer
10
358.3256008
20
243.2207838
40
11.9256968
50
278.9589346
51
280.5104799
0
ARC
8
bottom_labelLayer
10
359.099678
20
239.0674184
40
7.7008156
50
280.4847981
51
282.6268004
0
ARC
8
bottom_labelLayer
10
359.7787647
20
236.050423
40
4.6083403
50
282.5876567
51
285.5795458
0
ARC
8
bottom_labelLayer
10
360.1198767
20
234.7960272
40
3.308429
50
285.7236584
51
286.2564618
0
ARC
8
bottom_labelLayer
10
360.1191117
20
231.8936413
40
2.168566
50
287.9888713
51
295.3047902
0
ARC
8
bottom_labelLayer
10
359.5960675
20
233.476104
40
3.8352153
50
283.3069812
51
288.1197474
0
ARC
8
bottom_labelLayer
10
359.043595
20
235.7806262
40
6.2050287
50
280.0069418
51
283.3735669
0
ARC
8
bottom_labelLayer
10
358.6740591
20
237.7859428
40
8.2440657
50
279.1861996
51
280.1143542
0
ARC
8
bottom_labelLayer
10
358.4469401
20
239.0777936
40
9.5556232
50
275.526017
51
279.2939522
0
ARC
8
bottom_labelLayer
10
358.7026478
20
236.406911
40
6.8725299
50
270.8932833
51
275.5483652
0
ARC
8
bottom_labelLayer
10
358.7347965
20
235.1839459
40
5.6492272
50
270.0029954
51
270.7606368
0
ARC
8
bottom_labelLayer
10
358.646126
20
235.292356
40
5.7583246
50
253.7848045
51
270.8852527
0
ARC
8
bottom_labelLayer
10
357.9639179
20
232.9657638
40
3.3337856
50
190.3817643
51
253.8772421
0
ARC
8
bottom_labelLayer
10
361.4411279
20
233.9059388
40
6.9299126
50
179.3551024
51
192.8477537
0
ARC
8
bottom_labelLayer
10
361.1557719
20
234.0491403
40
4.4395169
50
179.6416552
51
189.7505722
0
ARC
8
bottom_labelLayer
10
359.5885315
20
233.769605
40
2.847592
50
189.5479464
51
205.7873598
0
ARC
8
bottom_labelLayer
10
358.9444677
20
233.4726079
40
2.1385022
50
206.1294524
51
221.4083901
0
ARC
8
bottom_labelLayer
10
358.8722482
20
233.4178089
40
2.0481022
50
221.5949149
51
262.3505202
0
ARC
8
bottom_labelLayer
10
359.0440036
20
234.3010501
40
2.9468166
50
261.3266466
51
270.1912872
0
LINE
8
bottom_labelLayer
10
370.6483731
20
231.6198749
11
370.6483731
21
229.9331562
0
LINE
8
bottom_labelLayer
10
364.1139981
20
233.9839374
11
364.1139981
21
242.6433124
0
LINE
8
bottom_labelLayer
10
364.1139981
20
242.6433124
11
362.0288418
21
242.6433124
0
LINE
8
bottom_labelLayer
10
362.0288418
20
242.6433124
11
362.0288418
21
243.7058124
0
LINE
8
bottom_labelLayer
10
362.0288418
20
243.7058124
11
364.1139981
21
244.6222187
0
LINE
8
bottom_labelLayer
10
364.1139981
20
244.6222187
11
365.0436856
21
247.7300312
0
LINE
8
bottom_labelLayer
10
365.0436856
20
247.7300312
11
366.3186856
21
247.7300312
0
LINE
8
bottom_labelLayer
10
366.3186856
20
247.7300312
11
366.3186856
21
244.3565937
0
LINE
8
bottom_labelLayer
10
366.3186856
20
244.3565937
11
370.5421231
21
244.3565937
0
LINE
8
bottom_labelLayer
10
370.5421231
20
244.3565937
11
370.5421231
21
242.6433124
0
LINE
8
bottom_labelLayer
10
370.5421231
20
242.6433124
11
366.3186856
21
242.6433124
0
LINE
8
bottom_labelLayer
10
366.3186856
20
242.6433124
11
366.3186856
21
234.0769062
0
ARC
8
bottom_labelLayer
10
368.671305
20
238.5947292
40
7.2404951
50
269.8803562
51
278.3028341
0
ARC
8
bottom_labelLayer
10
368.7401316
20
238.0322212
40
6.673957
50
278.4155027
51
279.0080262
0
ARC
8
bottom_labelLayer
10
367.9279446
20
243.2207838
40
11.9256968
50
278.9589346
51
280.5104799
0
ARC
8
bottom_labelLayer
10
368.7020218
20
239.0674184
40
7.7008156
50
280.4847981
51
282.6268004
0
ARC
8
bottom_labelLayer
10
369.3811084
20
236.050423
40
4.6083403
50
282.5876567
51
285.5795458
0
ARC
8
bottom_labelLayer
10
369.7222205
20
234.7960272
40
3.308429
50
285.7236584
51
286.2564618
0
ARC
8
bottom_labelLayer
10
369.7214555
20
231.8936413
40
2.168566
50
287.9888713
51
295.3047902
0
ARC
8
bottom_labelLayer
10
369.1984112
20
233.476104
40
3.8352153
50
283.3069812
51
288.1197474
0
ARC
8
bottom_labelLayer
10
368.6459387
20
235.7806262
40
6.2050287
50
280.0069418
51
283.3735669
0
ARC
8
bottom_labelLayer
10
368.2764029
20
237.7859428
40
8.2440657
50
279.1861996
51
280.1143542
0
ARC
8
bottom_labelLayer
10
368.0492839
20
239.0777936
40
9.5556232
50
275.526017
51
279.2939522
0
ARC
8
bottom_labelLayer
10
368.3049916
20
236.406911
40
6.8725299
50
270.8932833
51
275.5483652
0
ARC
8
bottom_labelLayer
10
368.3371402
20
235.1839459
40
5.6492272
50
270.0029954
51
270.7606368
0
ARC
8
bottom_labelLayer
10
368.2484697
20
235.292356
40
5.7583246
50
253.7848045
51
270.8852527
0
ARC
8
bottom_labelLayer
10
367.5662617
20
232.9657638
40
3.3337856
50
190.3817643
51
253.8772421
0
ARC
8
bottom_labelLayer
10
371.0434717
20
233.9059388
40
6.9299126
50
179.3551024
51
192.8477537
0
ARC
8
bottom_labelLayer
10
370.7581156
20
234.0491403
40
4.4395169
50
179.6416552
51
189.7505722
0
ARC
8
bottom_labelLayer
10
369.1908752
20
233.769605
40
2.847592
50
189.5479464
51
205.7873598
0
ARC
8
bottom_labelLayer
10
368.5468114
20
233.4726079
40
2.1385022
50
206.1294524
51
221.4083901
0
ARC
8
bottom_labelLayer
10
368.4745919
20
233.4178089
40
2.0481022
50
221.5949149
51
262.3505202
0
ARC
8
bottom_labelLayer
10
368.6463474
20
234.3010501
40
2.9468166
50
261.3266466
51
270.1912872
0
ARC
8
bottom_labelLayer
10
374.7331699
20
237.0149776
40
11.3881182
50
349.176191
51
0.3862587
0
ARC
8
bottom_labelLayer
10
378.5672841
20
236.2506398
40
7.4787443
50
330.2507023
51
349.4116451
0
ARC
8
bottom_labelLayer
10
379.7472302
20
235.6373496
40
6.1502199
50
318.1439704
51
329.7566225
0
ARC
8
bottom_labelLayer
10
379.9601915
20
235.4666823
40
5.8777407
50
278.8959153
51
317.9979102
0
ARC
8
bottom_labelLayer
10
379.411467
20
238.0956711
40
8.5610336
50
269.7502798
51
279.80332
0
ARC
8
bottom_labelLayer
10
379.322474
20
236.6144007
40
7.0798707
50
253.5436905
51
270.418241
0
ARC
8
bottom_labelLayer
10
379.0868022
20
235.7027593
40
6.1388964
50
238.8115656
51
253.2428249
0
ARC
8
bottom_labelLayer
10
379.0107381
20
235.5497932
40
5.9686653
50
207.7946982
51
238.6757945
0
ARC
8
bottom_labelLayer
10
380.1020841
20
236.2182012
40
7.2462468
50
205.6560288
51
208.4461662
0
ARC
8
bottom_labelLayer
10
380.9428084
20
236.568505
40
8.1558963
50
188.9102471
51
205.3171442
0
ARC
8
bottom_labelLayer
10
383.7758963
20
237.0483376
40
11.0291712
50
179.7744758
51
189.0932825
0
ARC
8
bottom_labelLayer
10
384.1938069
20
237.1692841
40
11.4472589
50
169.2442985
51
180.3880771
0
ARC
8
bottom_labelLayer
10
380.3064022
20
237.9376837
40
7.4848065
50
150.7111461
51
169.4695513
0
ARC
8
bottom_labelLayer
10
379.065437
20
238.5749634
40
6.0909311
50
138.1759572
51
150.2287319
0
ARC
8
bottom_labelLayer
10
378.8590002
20
238.7333782
40
5.83149
50
99.1759341
51
137.9832714
0
ARC
8
bottom_labelLayer
10
379.4271647
20
236.0595337
40
8.562778
50
89.7326269
51
100.0759798
0
ARC
8
bottom_labelLayer
10
379.5407228
20
237.2142756
40
7.4083086
50
73.5222763
51
90.5692289
0
ARC
8
bottom_labelLayer
10
379.9751763
20
238.7927598
40
5.7715069
50
41.1445682
51
73.2133877
0
ARC
8
bottom_labelLayer
10
379.1458385
20
238.079956
40
6.8650442
50
13.501436
51
41.0703394
0
ARC
8
bottom_labelLayer
10
375.9417076
20
237.2414779
40
10.1766074
50
1.1277175
51
13.8800006
0
ARC
8
bottom_labelLayer
10
373.1811566
20
237.0935719
40
12.9398728
50
359.9919325
51
1.5419313
0
ARC
8
bottom_labelLayer
10
386.1955226
20
237.0344537
40
11.164484
50
179.7059564
51
187.9160794
0
ARC
8
bottom_labelLayer
10
382.1007382
20
236.4462411
40
7.027734
50
187.7639199
51
200.0976918
0
ARC
8
bottom_labelLayer
10
379.8449432
20
235.6197152
40
4.6252865
50
200.084602
51
216.9131628
0
ARC
8
bottom_labelLayer
10
379.0212017
20
235.0315252
40
3.6134803
50
217.3009604
51
261.7099049
0
ARC
8
bottom_labelLayer
10
379.4036083
20
236.856333
40
5.4755716
50
260.5033226
51
270.2476917
0
ARC
8
bottom_labelLayer
10
379.4765993
20
236.5015043
40
5.1209294
50
269.4481726
51
284.725559
0
ARC
8
bottom_labelLayer
10
379.881993
20
234.9980259
40
3.5638005
50
284.566234
51
322.6333791
0
ARC
8
bottom_labelLayer
10
378.9341627
20
235.6827901
40
4.7327999
50
323.0089323
51
342.6390543
0
ARC
8
bottom_labelLayer
10
376.2231489
20
236.5688256
40
7.584784
50
342.3615852
51
353.7537485
0
ARC
8
bottom_labelLayer
10
372.2235548
20
237.0509249
40
11.6131714
50
353.5363
51
0.2014183
0
ARC
8
bottom_labelLayer
10
372.8363675
20
237.147897
40
11.0004301
50
359.7075566
51
7.8972827
0
ARC
8
bottom_labelLayer
10
376.86503
20
237.725447
40
6.9306464
50
7.7439783
51
20.069033
0
ARC
8
bottom_labelLayer
10
379.109946
20
238.5492479
40
4.5393544
50
20.0257137
51
37.4350375
0
ARC
8
bottom_labelLayer
10
379.8548028
20
239.0777859
40
3.6267789
50
37.9577672
51
80.4006152
0
ARC
8
bottom_labelLayer
10
379.4315287
20
237.1891719
40
5.5604757
50
79.3453567
51
90.3174907
0
ARC
8
bottom_labelLayer
10
379.353152
20
237.5028798
40
5.2468982
50
89.4805882
51
103.8805021
0
ARC
8
bottom_labelLayer
10
378.9122776
20
239.1817286
40
3.5114007
50
103.4685233
51
142.3118868
0
ARC
8
bottom_labelLayer
10
379.7693713
20
238.5789588
40
4.5584154
50
142.9025645
51
162.3749634
0
ARC
8
bottom_labelLayer
10
382.4700781
20
237.6789542
40
7.404964
50
162.06531
51
173.1674939
0
ARC
8
bottom_labelLayer
10
386.6812072
20
237.1418465
40
11.6501295
50
173.0086082
51
180.2463776
0
LINE
8
bottom_labelLayer
10
410.7444668
20
229.8003437
11
408.5397793
21
229.8003437
0
LINE
8
bottom_labelLayer
10
408.5397793
20
229.8003437
11
408.5397793
21
239.2698749
0
LINE
8
bottom_labelLayer
10
401.4608731
20
237.9284687
11
401.4608731
21
229.8003437
0
LINE
8
bottom_labelLayer
10
401.4608731
20
229.8003437
11
399.2561856
21
229.8003437
0
LINE
8
bottom_labelLayer
10
399.2561856
20
229.8003437
11
399.2561856
21
239.2698749
0
LINE
8
bottom_labelLayer
10
392.1905606
20
237.4370624
11
392.1905606
21
229.8003437
0
LINE
8
bottom_labelLayer
10
392.1905606
20
229.8003437
11
389.9858731
21
229.8003437
0
LINE
8
bottom_labelLayer
10
389.9858731
20
229.8003437
11
389.9858731
21
244.3565937
0
LINE
8
bottom_labelLayer
10
389.9858731
20
244.3565937
11
391.7788418
21
244.3565937
0
LINE
8
bottom_labelLayer
10
391.7788418
20
244.3565937
11
392.1374356
21
242.3644062
0
LINE
8
bottom_labelLayer
10
392.1374356
20
242.3644062
11
392.2436856
21
242.3644062
0
LINE
8
bottom_labelLayer
10
401.0093106
20
242.1519062
11
401.1155606
21
242.1519062
0
LINE
8
bottom_labelLayer
10
410.7444668
20
239.2964374
11
410.7444668
21
229.8003437
0
ARC
8
bottom_labelLayer
10
402.0358501
20
239.3045152
40
6.5040215
50
359.6948427
51
8.1471356
0
ARC
8
bottom_labelLayer
10
404.4315014
20
239.6590428
40
4.0823224
50
7.9864577
51
20.7949686
0
ARC
8
bottom_labelLayer
10
405.7557317
20
240.1663072
40
2.6642683
50
20.7071214
51
40.0217512
0
ARC
8
bottom_labelLayer
10
406.0462411
20
240.3563839
40
2.3199288
50
41.0408011
51
73.1792677
0
ARC
8
bottom_labelLayer
10
405.6258784
20
239.08499
40
3.6587319
50
72.6395558
51
86.2568028
0
ARC
8
bottom_labelLayer
10
405.4912129
20
237.6318231
40
5.1177429
50
85.8144786
51
90.068529
0
ARC
8
bottom_labelLayer
10
405.4417391
20
237.076717
40
5.6730111
50
89.5621454
51
101.2961743
0
ARC
8
bottom_labelLayer
10
405.0144642
20
239.1222259
40
3.5834804
50
101.0032257
51
121.784059
0
ARC
8
bottom_labelLayer
10
404.6896354
20
239.7021388
40
2.9195855
50
122.3597405
51
140.288391
0
ARC
8
bottom_labelLayer
10
405.2740426
20
239.2736333
40
3.6431975
50
140.9765342
51
161.1699477
0
ARC
8
bottom_labelLayer
10
407.4756463
20
238.4901323
40
5.9799363
50
160.8731773
51
172.5272472
0
ARC
8
bottom_labelLayer
10
411.1544607
20
237.9820603
40
9.6936161
50
172.3776492
51
180.1829668
0
ARC
8
bottom_labelLayer
10
413.7635619
20
237.9284822
40
12.3026887
50
179.8946415
51
180.0000632
0
ARC
8
bottom_labelLayer
10
392.7522564
20
239.3045152
40
6.5040215
50
359.6948427
51
8.1471356
0
ARC
8
bottom_labelLayer
10
395.1479077
20
239.6590428
40
4.0823224
50
7.9864577
51
20.7949686
0
ARC
8
bottom_labelLayer
10
396.472138
20
240.1663072
40
2.6642683
50
20.7071214
51
40.0217512
0
ARC
8
bottom_labelLayer
10
396.7686873
20
240.3605569
40
2.3126333
50
41.0610745
51
72.8993558
0
ARC
8
bottom_labelLayer
10
396.3403635
20
239.0853924
40
3.6575335
50
72.3600908
51
85.9561959
0
ARC
8
bottom_labelLayer
10
396.1953643
20
237.5868323
40
5.1627351
50
85.5238034
51
90.0793221
0
ARC
8
bottom_labelLayer
10
396.1459103
20
237.2739192
40
5.4758066
50
89.5573241
51
101.483225
0
ARC
8
bottom_labelLayer
10
395.7256223
20
239.2430561
40
3.4624716
50
101.1546312
51
123.0655751
0
ARC
8
bottom_labelLayer
10
395.4399344
20
239.7407107
40
2.8897212
50
123.7020438
51
142.3021992
0
ARC
8
bottom_labelLayer
10
396.1091439
20
239.2867111
40
3.6971884
50
143.0769793
51
161.3913804
0
ARC
8
bottom_labelLayer
10
398.8066807
20
238.3340025
40
6.5578454
50
161.0234436
51
171.4469044
0
ARC
8
bottom_labelLayer
10
403.2723629
20
237.6344651
40
11.077936
50
171.3041808
51
178.3501666
0
ARC
8
bottom_labelLayer
10
407.5403777
20
237.4438513
40
15.3498184
50
178.0976354
51
180.0253408
0
ARC
8
bottom_labelLayer
10
395.978725
20
240.1680183
40
4.3329711
50
117.1209581
51
149.5423662
0
ARC
8
bottom_labelLayer
10
396.420941
20
239.3820347
40
5.234245
50
93.8343286
51
117.5072124
0
ARC
8
bottom_labelLayer
10
396.5430782
20
238.3002699
40
6.3219499
50
89.9661736
51
94.283172
0
ARC
8
bottom_labelLayer
10
396.6162635
20
237.4043978
40
7.218155
50
77.5572209
51
90.5513068
0
ARC
8
bottom_labelLayer
10
397.2860292
20
240.2851812
40
4.260856
50
52.702705
51
78.0053821
0
ARC
8
bottom_labelLayer
10
397.5246543
20
240.7291495
40
3.7639163
50
22.2097913
51
51.4970598
0
ARC
8
bottom_labelLayer
10
405.1094478
20
239.8630003
40
4.6032842
50
119.4041715
51
150.1828801
0
ARC
8
bottom_labelLayer
10
405.6199682
20
239.0866489
40
5.530639
50
118.258349
51
120.0629713
0
ARC
8
bottom_labelLayer
10
405.6185224
20
239.0298826
40
5.5800266
50
95.863527
51
117.9693094
0
ARC
8
bottom_labelLayer
10
405.8073706
20
237.6643798
40
6.9578458
50
89.9196908
51
96.2617707
0
ARC
8
bottom_labelLayer
10
405.8680004
20
236.95878
40
7.6636076
50
79.9360998
51
90.3803794
0
ARC
8
bottom_labelLayer
10
406.3786389
20
239.724334
40
4.8514127
50
62.9723242
51
80.1665272
0
ARC
8
bottom_labelLayer
10
406.9124424
20
240.8194923
40
3.6333558
50
44.2290006
51
62.6229116
0
ARC
8
bottom_labelLayer
10
406.7536744
20
240.7493542
40
3.7965273
50
19.5612056
51
43.3161137
0
ARC
8
bottom_labelLayer
10
404.4478797
20
239.8832961
40
6.2593649
50
7.5041793
51
19.9645309
0
ARC
8
bottom_labelLayer
10
400.6324281
20
239.3474907
40
10.1121675
50
359.7107296
51
7.6907283
0
ENDSEC
0
EOF